<svg width="398" height="56" viewBox="0 0 398 56" fill="none" xmlns="http://www.w3.org/2000/svg">
<path d="M27.4077 15.397L0 26.0382V32.4586L27.4077 43.0998V36.9172L6.89651 29.2484L27.4077 21.5796V15.397Z" fill="#FDDD09"/>
<path d="M53.2227 50.0552H60.9515V8.44161H53.2227V50.0552Z" fill="white"/>
<path d="M102.648 8.44161H67.4519V14.9809H81.1854V50.0552H88.8548V14.9809H102.648V8.44161Z" fill="white"/>
<path d="M125.506 50.0552H154.995V43.5159H133.235V8.44161H125.506V50.0552Z" fill="white"/>
<path d="M164.129 13.0786C166.923 13.0786 168.885 11.0573 168.885 8.44161C168.885 6.00425 166.864 4.16136 164.129 4.16136C161.394 4.16136 159.373 6.12314 159.373 8.61996C159.373 11.1168 161.394 13.0786 164.129 13.0786ZM160.383 50.0552H167.815V18.31H160.383V50.0552Z" fill="white"/>
<path d="M195.167 17.9533C191.124 17.9533 187.557 19.3206 185.001 22.1741V5.9448H177.569V50.0552H184.644V45.9533C187.141 48.9851 190.827 50.4713 195.167 50.4713C204.442 50.4713 211.279 44.051 211.279 34.1826C211.279 24.3142 204.442 17.9533 195.167 17.9533ZM194.335 44.1104C188.984 44.1104 184.882 40.2463 184.882 34.1826C184.882 28.1189 188.984 24.2548 194.335 24.2548C199.685 24.2548 203.728 28.1189 203.728 34.1826C203.728 40.2463 199.685 44.1104 194.335 44.1104Z" fill="white"/>
<path d="M248.172 34.3609C248.172 24.4331 241.394 17.9533 232.12 17.9533C222.667 17.9533 215.711 24.7304 215.711 34.1826C215.711 43.6348 222.607 50.4713 233.249 50.4713C238.719 50.4713 243.178 48.6879 246.031 45.2994L242.048 40.7219C239.789 43.0403 236.995 44.1698 233.427 44.1698C227.898 44.1698 224.034 41.1974 223.142 36.5605H248.053C248.112 35.8471 248.172 34.9554 248.172 34.3609ZM232.12 23.8981C236.995 23.8981 240.502 27.0488 241.097 31.6263H223.083C223.796 26.9894 227.304 23.8981 232.12 23.8981Z" fill="white"/>
<path d="M262.385 22.9469V18.31H255.31V50.0552H262.742V34.6582C262.742 28.1783 266.309 24.8493 271.957 24.8493C272.492 24.8493 273.027 24.9087 273.681 25.0276V17.9533C268.39 17.9533 264.525 19.6178 262.385 22.9469Z" fill="white"/>
<path d="M291.94 17.9533C286.827 17.9533 281.892 19.2611 278.503 21.8769L281.417 27.2866C283.795 25.3248 287.481 24.1359 291.048 24.1359C296.339 24.1359 298.955 26.6921 298.955 31.0318V31.5074H290.751C281.119 31.5074 277.552 35.6688 277.552 40.9597C277.552 46.4883 282.13 50.4713 289.383 50.4713C294.139 50.4713 297.588 48.9257 299.371 46.1911V50.0552H306.387V31.448C306.387 22.293 301.095 17.9533 291.94 17.9533ZM290.929 45.0616C287.124 45.0616 284.865 43.3376 284.865 40.6624C284.865 38.3439 286.232 36.4416 291.286 36.4416H298.955V40.1274C297.707 43.397 294.556 45.0616 290.929 45.0616Z" fill="white"/>
<path d="M315.924 50.0552H323.356V5.9448H315.924V50.0552Z" fill="white"/>
<path d="M342.882 56H349.54L369.16 0H362.501L342.882 56Z" fill="#FDDD09"/>
<path d="M370.592 15.397V21.5796L391.103 29.2484L370.592 36.9172V43.0998L398 32.4586V26.0382L370.592 15.397Z" fill="#FDDD09"/>
</svg>
