<svg width="276" height="38" viewBox="0 0 276 38" fill="none" xmlns="http://www.w3.org/2000/svg">
<path d="M19.0063 10.448L0 17.6688V22.0255L19.0063 29.2463V25.051L4.78251 19.8471L19.0063 14.6433V10.448Z" fill="#FDDD09"/>
<path d="M36.9082 33.966H42.2679V5.72824H36.9082V33.966Z" fill="white"/>
<path d="M71.1829 5.72824H46.7757V10.1656H56.2994V33.966H61.6179V10.1656H71.1829V5.72824Z" fill="white"/>
<path d="M87.0347 33.966H107.484V29.5287H92.3944V5.72824H87.0347V33.966Z" fill="white"/>
<path d="M113.818 8.87473C115.756 8.87473 117.116 7.50319 117.116 5.72824C117.116 4.07431 115.715 2.82378 113.818 2.82378C111.922 2.82378 110.52 4.15499 110.52 5.84926C110.52 7.54353 111.922 8.87473 113.818 8.87473ZM111.221 33.966H116.374V12.4246H111.221V33.966Z" fill="white"/>
<path d="M135.342 12.1826C132.538 12.1826 130.065 13.1104 128.292 15.0467V4.03397H123.138V33.966H128.044V31.1826C129.776 33.2399 132.332 34.2484 135.342 34.2484C141.774 34.2484 146.515 29.8917 146.515 23.1953C146.515 16.4989 141.774 12.1826 135.342 12.1826ZM134.765 29.9321C131.054 29.9321 128.209 27.31 128.209 23.1953C128.209 19.0807 131.054 16.4586 134.765 16.4586C138.475 16.4586 141.279 19.0807 141.279 23.1953C141.279 27.31 138.475 29.9321 134.765 29.9321Z" fill="white"/>
<path d="M172.099 23.3163C172.099 16.5796 167.399 12.1826 160.967 12.1826C154.412 12.1826 149.588 16.7813 149.588 23.1953C149.588 29.6093 154.371 34.2484 161.751 34.2484C165.544 34.2484 168.636 33.0382 170.615 30.7389L167.852 27.6327C166.286 29.2059 164.348 29.9724 161.874 29.9724C158.04 29.9724 155.36 27.9554 154.742 24.8089H172.017C172.058 24.3248 172.099 23.7197 172.099 23.3163ZM160.967 16.2166C164.348 16.2166 166.781 18.3546 167.193 21.4607H154.701C155.195 18.3142 157.628 16.2166 160.967 16.2166Z" fill="white"/>
<path d="M181.956 15.5711V12.4246H177.049V33.966H182.203V23.518C182.203 19.121 184.677 16.862 188.593 16.862C188.964 16.862 189.335 16.9023 189.789 16.983V12.1826C186.12 12.1826 183.44 13.3121 181.956 15.5711Z" fill="white"/>
<path d="M202.451 12.1826C198.905 12.1826 195.483 13.0701 193.133 14.845L195.153 18.5159C196.802 17.1847 199.358 16.3779 201.832 16.3779C205.502 16.3779 207.316 18.1125 207.316 21.0573V21.38H201.626C194.947 21.38 192.473 24.2038 192.473 27.7941C192.473 31.5456 195.648 34.2484 200.678 34.2484C203.976 34.2484 206.367 33.1996 207.604 31.3439V33.966H212.469V21.3397C212.469 15.1274 208.8 12.1826 202.451 12.1826ZM201.75 30.5775C199.111 30.5775 197.544 29.4076 197.544 27.5924C197.544 26.0191 198.493 24.7282 201.997 24.7282H207.316V27.2293C206.45 29.448 204.265 30.5775 201.75 30.5775Z" fill="white"/>
<path d="M219.083 33.966H224.237V4.03397H219.083V33.966Z" fill="white"/>
<path d="M237.777 38H242.395L256 0H251.383L237.777 38Z" fill="#FDDD09"/>
<path d="M256.994 10.448V14.6433L271.217 19.8471L256.994 25.051V29.2463L276 22.0255V17.6688L256.994 10.448Z" fill="#FDDD09"/>
</svg>
