<svg width="65" height="65" viewBox="0 0 65 65" fill="none" xmlns="http://www.w3.org/2000/svg">
<g clip-path="url(#clip0_132_71)">
<path d="M54.8303 0H10.1697C4.55313 0 0 4.55313 0 10.1697V54.8303C0 60.4469 4.55313 65 10.1697 65H54.8303C60.4469 65 65 60.4469 65 54.8303V10.1697C65 4.55313 60.4469 0 54.8303 0Z" fill="#191919"/>
<path d="M46.58 23.532H44.1048C44.1048 33.7914 40.5176 33.9438 32.1146 33.9438C24.6174 33.9438 23.2632 33.9438 23.2632 42.1854V46.8488C23.2632 49.4226 27.4423 51.5121 32.5899 51.5121C37.7375 51.5121 41.9166 49.4226 41.9166 46.8488V44.3377H32.5899V42.1495H46.58C49.1538 42.1495 51.2433 37.9704 51.2433 32.8228C51.2433 27.6752 49.1538 23.532 46.58 23.532ZM37.7196 45.2076C38.1293 45.2076 38.5298 45.3291 38.8705 45.5567C39.2112 45.7844 39.4767 46.1079 39.6335 46.4865C39.7903 46.865 39.8313 47.2815 39.7514 47.6834C39.6715 48.0852 39.4741 48.4543 39.1844 48.7441C38.8947 49.0338 38.5256 49.2311 38.1237 49.311C37.7219 49.391 37.3054 49.3499 36.9268 49.1931C36.5483 49.0363 36.2247 48.7708 35.9971 48.4301C35.7695 48.0895 35.648 47.6889 35.648 47.2792C35.6468 47.0068 35.6996 46.7369 35.8033 46.4851C35.9069 46.2332 36.0595 46.0043 36.2521 45.8117C36.4447 45.6191 36.6735 45.4666 36.9254 45.3629C37.1773 45.2592 37.4472 45.2064 37.7196 45.2076Z" fill="#FDDD09"/>
<path d="M32.1142 31.7915C40.6427 31.7915 41.9162 31.5673 41.9162 23.3168V18.8328C41.9162 16.259 37.7371 14.1694 32.5895 14.1694C27.4418 14.1694 23.2627 16.259 23.2627 18.8328V21.3438H32.5895V23.4961H18.5994C16.0256 23.4961 13.936 27.6752 13.936 32.8229C13.936 37.9705 16.0256 42.1496 18.5994 42.1496H21.1104C21.1104 31.7915 24.5541 31.7915 32.1142 31.7915ZM27.4598 20.5098C27.05 20.5098 26.6495 20.3883 26.3088 20.1607C25.9682 19.933 25.7026 19.6095 25.5458 19.231C25.3891 18.8524 25.348 18.4359 25.428 18.034C25.5079 17.6322 25.7052 17.2631 25.9949 16.9734C26.2846 16.6836 26.6538 16.4863 27.0556 16.4064C27.4575 16.3265 27.874 16.3675 28.2525 16.5243C28.6311 16.6811 28.9546 16.9466 29.1822 17.2873C29.4099 17.6279 29.5314 18.0285 29.5314 18.4382C29.5326 18.7106 29.4798 18.9805 29.3761 19.2324C29.2724 19.4842 29.1199 19.7131 28.9273 19.9057C28.7347 20.0983 28.5058 20.2508 28.2539 20.3545C28.0021 20.4582 27.7321 20.511 27.4598 20.5098Z" fill="#FDDD09"/>
</g>
<defs>
<clipPath id="clip0_132_71">
<rect width="65" height="65" fill="white"/>
</clipPath>
</defs>
</svg>
