<svg width="65" height="65" viewBox="0 0 65 65" fill="none" xmlns="http://www.w3.org/2000/svg">
<g clip-path="url(#clip0_132_38)">
<path d="M54.8303 0H10.1697C4.55313 0 0 4.55313 0 10.1697V54.8303C0 60.4469 4.55313 65 10.1697 65H54.8303C60.4469 65 65 60.4469 65 54.8303V10.1697C65 4.55313 60.4469 0 54.8303 0Z" fill="#191919"/>
<path d="M39.1361 21.7384C38.8746 21.74 38.6179 21.8083 38.3903 21.937C38.1627 22.0658 37.9718 22.2505 37.8357 22.4738L25.6124 42.2751C25.4954 42.448 25.4152 42.6431 25.3767 42.8482C25.3382 43.0534 25.3423 43.2643 25.3886 43.4678C25.435 43.6713 25.5226 43.8632 25.6461 44.0314C25.7696 44.1997 25.9264 44.3408 26.1067 44.446C26.287 44.5513 26.4869 44.6183 26.6942 44.6431C26.9015 44.6679 27.1116 44.6498 27.3116 44.5901C27.5116 44.5303 27.6972 44.4301 27.8569 44.2957C28.0166 44.1613 28.147 43.9955 28.24 43.8086L40.3558 24.1329C40.5445 23.8726 40.6422 23.5574 40.6338 23.2361C40.6269 22.841 40.4668 22.4641 40.1875 22.1847C39.9081 21.9053 39.5311 21.7453 39.1361 21.7384Z" fill="#FDDD09"/>
<path d="M21.1732 43.71C20.9606 43.7415 20.7437 43.7229 20.5395 43.6557C20.3354 43.5886 20.1498 43.4747 19.9974 43.3232C19.845 43.1717 19.7301 42.9867 19.6618 42.783C19.5934 42.5792 19.5736 42.3624 19.6038 42.1496V35.6209C19.6468 34.517 19.3323 33.4288 18.707 32.518C19.3264 31.5944 19.64 30.4996 19.6038 29.3882V22.8684C19.572 22.655 19.5907 22.4371 19.6583 22.2322C19.726 22.0273 19.8407 21.8411 19.9933 21.6885C20.1458 21.5359 20.3321 21.4212 20.537 21.3536C20.7419 21.2859 20.9598 21.2673 21.1732 21.299C21.3802 21.3084 21.5867 21.2739 21.7794 21.1978C21.9721 21.1217 22.1465 21.0058 22.2913 20.8577C22.4361 20.7095 22.548 20.5324 22.6195 20.338C22.6911 20.1436 22.7208 19.9363 22.7067 19.7296C22.7175 19.3127 22.5664 18.9077 22.2852 18.5997C22.1426 18.4494 21.9697 18.331 21.7781 18.2522C21.5865 18.1733 21.3803 18.1359 21.1732 18.1423C18.0613 18.1423 16.4829 19.7207 16.4829 22.8326V29.3523C16.5176 29.5639 16.502 29.7806 16.4371 29.985C16.3723 30.1893 16.2602 30.3755 16.11 30.5284C15.9597 30.6813 15.7755 30.7966 15.5723 30.865C15.369 30.9333 15.1526 30.9527 14.9405 30.9217C14.7339 30.9155 14.5282 30.9516 14.336 31.0278C14.1439 31.104 13.9694 31.2188 13.8232 31.3649C13.6771 31.5111 13.5624 31.6856 13.4862 31.8777C13.4099 32.0698 13.3738 32.2755 13.38 32.4821C13.372 32.6865 13.407 32.8903 13.4827 33.0803C13.5584 33.2703 13.6731 33.4423 13.8195 33.5852C13.9683 33.7278 14.1441 33.8394 14.3366 33.9133C14.5291 33.9872 14.7344 34.022 14.9405 34.0156C15.1526 33.9846 15.369 34.004 15.5723 34.0724C15.7755 34.1407 15.9597 34.256 16.11 34.4089C16.2602 34.5618 16.3723 34.748 16.4371 34.9524C16.502 35.1567 16.5176 35.3735 16.4829 35.585V42.1496C16.4829 45.2705 18.0613 46.8488 21.1732 46.8488C21.3782 46.8551 21.5822 46.8185 21.7721 46.7413C21.9621 46.664 22.1338 46.548 22.2763 46.4004C22.5542 46.095 22.7082 45.6969 22.7082 45.2839C22.7082 44.871 22.5542 44.4729 22.2763 44.1674C22.1346 44.0183 21.9632 43.9005 21.7732 43.8217C21.5832 43.743 21.3788 43.7049 21.1732 43.71Z" fill="#FDDD09"/>
<path d="M44.768 43.71C44.9813 43.743 45.1993 43.7256 45.4046 43.6591C45.6099 43.5927 45.7967 43.479 45.9502 43.3273C46.1037 43.1756 46.2194 42.9901 46.2882 42.7855C46.357 42.581 46.3769 42.3632 46.3464 42.1496V35.6209C46.3034 34.517 46.6179 33.4287 47.2432 32.518C46.6238 31.5944 46.3101 30.4996 46.3464 29.3881V22.8684C46.3785 22.6541 46.3598 22.4353 46.2917 22.2296C46.2236 22.0239 46.108 21.8371 45.9544 21.6843C45.8007 21.5315 45.6132 21.417 45.4072 21.3501C45.2011 21.2832 44.9821 21.2657 44.768 21.299C44.566 21.3053 44.3648 21.2704 44.1767 21.1964C43.9886 21.1224 43.8175 21.0108 43.6739 20.8686C43.5269 20.7191 43.4126 20.5406 43.3385 20.3445C43.2644 20.1484 43.232 19.939 43.2435 19.7296C43.2327 19.3127 43.3837 18.9077 43.665 18.5997C43.8063 18.4501 43.9776 18.332 44.1677 18.2532C44.3577 18.1744 44.5623 18.1366 44.768 18.1423C47.8889 18.1423 49.4672 19.7207 49.4672 22.8325V29.3523C49.4325 29.5638 49.4482 29.7806 49.513 29.985C49.5778 30.1893 49.6899 30.3755 49.8402 30.5284C49.9905 30.6813 50.1747 30.7966 50.3779 30.8649C50.5811 30.9333 50.7976 30.9527 51.0097 30.9217C51.2163 30.9155 51.422 30.9516 51.6142 31.0278C51.8063 31.104 51.9808 31.2187 52.1269 31.3649C52.2731 31.5111 52.3878 31.6856 52.464 31.8777C52.5403 32.0698 52.5764 32.2755 52.5702 32.4821C52.5765 32.6871 52.5398 32.8911 52.4626 33.081C52.3854 33.271 52.2693 33.4427 52.1218 33.5852C51.9751 33.7284 51.801 33.8404 51.6099 33.9144C51.4187 33.9883 51.2146 34.0228 51.0097 34.0156C50.7976 33.9846 50.5811 34.004 50.3779 34.0724C50.1747 34.1407 49.9905 34.256 49.8402 34.4089C49.6899 34.5618 49.5778 34.748 49.513 34.9523C49.4482 35.1567 49.4325 35.3735 49.4672 35.585V42.1496C49.4672 45.2705 47.8889 46.8488 44.768 46.8488C44.5632 46.854 44.3595 46.8169 44.1697 46.7397C43.9799 46.6626 43.8081 46.5471 43.665 46.4004C43.3926 46.0923 43.2423 45.6952 43.2423 45.2839C43.2423 44.8726 43.3926 44.4756 43.665 44.1674C43.8073 44.0191 43.9788 43.902 44.1686 43.8233C44.3585 43.7445 44.5625 43.706 44.768 43.71Z" fill="#FDDD09"/>
</g>
<defs>
<clipPath id="clip0_132_38">
<rect width="65" height="65" fill="white"/>
</clipPath>
</defs>
</svg>
