<svg width="65" height="65" viewBox="0 0 65 65" fill="none" xmlns="http://www.w3.org/2000/svg">
<g clip-path="url(#clip0_132_52)">
<path d="M54.8303 0H10.1697C4.55313 0 0 4.55313 0 10.1697V54.8303C0 60.4469 4.55313 65 10.1697 65H54.8303C60.4469 65 65 60.4469 65 54.8303V10.1697C65 4.55313 60.4469 0 54.8303 0Z" fill="#191919"/>
<path d="M26.2582 45.9968C26.3039 45.9689 26.3381 45.9254 26.3546 45.8744C26.371 45.8234 26.3687 45.7682 26.3479 45.7188C26.3262 45.6682 26.2872 45.627 26.238 45.6024C26.1888 45.5778 26.1324 45.5714 26.0789 45.5843C24.5543 46.0148 23.7113 46.5618 23.5768 47.2075C23.5387 47.444 23.5722 47.6864 23.6728 47.9037C23.7735 48.121 23.9368 48.3033 24.1418 48.4272C25.2449 49.324 28.1505 50.1131 31.6659 50.1131C34.6721 50.1288 37.651 49.5434 40.4277 48.3913C40.4678 48.3738 40.5019 48.3449 40.5258 48.3083C40.5497 48.2716 40.5623 48.2288 40.5622 48.185C40.5629 48.1399 40.5494 48.0958 40.5237 48.0588C40.4979 48.0218 40.4612 47.9938 40.4187 47.9788C39.487 47.6215 38.587 47.1866 37.7283 46.6784C37.7028 46.6675 37.6753 46.6619 37.6476 46.6619C37.6199 46.6619 37.5924 46.6675 37.5669 46.6784C34.2585 47.4378 30.8389 47.5837 27.4779 47.1089C25.9175 46.9295 25.8009 46.5977 25.8009 46.5618C25.8009 46.5259 26.0609 46.1134 26.2582 45.9968Z" fill="#FDDD09"/>
<path d="M41.4323 42.9298C41.4322 42.8815 41.4176 42.8343 41.3904 42.7944C41.3633 42.7544 41.3248 42.7235 41.2799 42.7056C40.5605 42.4508 39.9012 42.051 39.3428 41.5308C39.317 41.5058 39.2857 41.4872 39.2515 41.4763C39.2173 41.4654 39.181 41.4626 39.1455 41.468C34.8601 42.3932 30.4515 42.6053 26.0971 42.0958C24.7878 41.9613 24.5636 41.6294 24.5277 41.4949C24.447 41.2079 24.8774 40.7775 25.1016 40.5981C25.1442 40.5674 25.1741 40.5222 25.1856 40.471C25.1972 40.4198 25.1896 40.3661 25.1644 40.3201C25.141 40.2719 25.1005 40.2341 25.0507 40.2142C25.001 40.1943 24.9456 40.1937 24.8954 40.2125C22.8148 40.903 21.8821 41.6653 22.1422 42.4904C22.5278 43.7279 26.0522 44.6158 30.6708 44.6158C34.2498 44.6168 37.8115 44.1188 41.253 43.1361C41.3008 43.1249 41.3439 43.099 41.3761 43.062C41.4083 43.0249 41.428 42.9787 41.4323 42.9298Z" fill="#FDDD09"/>
<path d="M32.6974 25.0206C32.0606 27.0384 32.6974 29.2087 34.6972 31.4597C34.9861 31.7633 35.2099 32.1228 35.3549 32.516C35.4998 32.9093 35.5629 33.328 35.5402 33.7465C35.374 34.7508 34.8558 35.6631 34.0784 36.3203C34.0358 36.3554 34.0077 36.4051 33.9994 36.4597C33.9911 36.5143 34.0033 36.5701 34.0336 36.6162C34.0549 36.6464 34.0831 36.6711 34.1158 36.6883C34.1486 36.7054 34.1849 36.7146 34.2219 36.7149C34.2572 36.7236 34.2942 36.7236 34.3295 36.7149C34.464 36.6432 37.7105 34.9213 38.3203 32.4103C38.4449 31.8882 38.4507 31.3449 38.3374 30.8203C38.2241 30.2957 37.9945 29.8032 37.6656 29.3791L37.3338 28.9217C36.2756 27.451 35.4416 26.2941 35.7285 24.9668C36.1052 23.1732 38.5804 21.0658 43.7369 18.0704C43.7857 18.0454 43.8231 18.0027 43.8414 17.951C43.8597 17.8993 43.8576 17.8426 43.8356 17.7924C43.8141 17.7437 43.7766 17.7037 43.7293 17.6793C43.682 17.6548 43.6277 17.6473 43.5755 17.6579C43.2078 17.7566 34.2757 20.0344 32.6974 25.0206Z" fill="#FDDD09"/>
<path d="M48.6962 50.9831C48.8128 50.6064 48.6962 50.0863 47.6559 49.5751C47.6078 49.5516 47.5527 49.5468 47.5013 49.5617C47.4499 49.5766 47.4059 49.6102 47.3779 49.6558C47.3476 49.702 47.3354 49.7577 47.3437 49.8124C47.352 49.867 47.3801 49.9166 47.4227 49.9517C47.5075 50.0178 47.5741 50.1043 47.6165 50.2031C47.6588 50.3019 47.6755 50.4098 47.6649 50.5167C47.6649 50.7409 47.342 51.1714 45.9699 51.5839C40.6609 53.1982 23.1553 53.8259 18.1691 51.6646C17.8911 51.5391 17.8015 51.4315 17.8015 51.3687C17.8015 50.992 19.4516 50.3194 20.6981 50.0504C21.2293 49.9204 21.7745 49.8572 22.3213 49.8621C22.3708 49.8689 22.4211 49.8584 22.4637 49.8322C22.5062 49.806 22.5383 49.7658 22.5545 49.7186C22.57 49.6722 22.5705 49.6222 22.556 49.5755C22.5416 49.5289 22.5128 49.4879 22.4738 49.4585C21.2183 48.5617 17.093 49.7006 15.2994 50.8754C14.5102 51.3956 14.1694 51.9068 14.2681 52.4C14.3667 52.8932 15.2456 53.4493 16.9136 53.7183C21.3405 54.4371 25.8179 54.8 30.3028 54.8034C40.6698 54.8034 48.1581 52.7767 48.6962 50.9831Z" fill="#FDDD09"/>
<path d="M28.1414 39.3875C32.4289 39.443 36.7084 39.0006 40.8939 38.0692H40.9567C41.6592 37.6187 42.3969 37.2258 43.1628 36.8944C43.2143 36.8742 43.256 36.835 43.2794 36.785C43.3028 36.7349 43.306 36.6777 43.2883 36.6253C43.2736 36.5723 43.2399 36.5265 43.1936 36.4967C43.1473 36.467 43.0916 36.4553 43.0372 36.4639C43.0372 36.4639 39.2976 37.1275 35.6656 37.4414C31.7608 37.8281 27.8296 37.8701 23.9175 37.567C22.2315 37.3428 22.1239 37.0378 22.1239 37.0378C22.1239 36.6433 24.4107 35.7465 27.0473 35.1187C27.1013 35.1078 27.1491 35.0766 27.1808 35.0316C27.2125 34.9865 27.2257 34.9311 27.2177 34.8766C27.2177 34.8499 27.2124 34.8235 27.2019 34.7989C27.1914 34.7744 27.1761 34.7522 27.1568 34.7338C27.1375 34.7153 27.1147 34.701 27.0897 34.6916C27.0647 34.6823 27.0381 34.6781 27.0114 34.6793C24.2905 34.6508 21.6036 35.2848 19.1824 36.5267C18.3663 36.9123 18.0345 37.3248 18.1959 37.7553C18.6443 38.8135 23.0297 39.3875 28.1414 39.3875Z" fill="#FDDD09"/>
<path d="M43.7908 35.4684C43.8216 35.5055 43.8636 35.5316 43.9104 35.5429C43.9573 35.5542 44.0065 35.5501 44.0509 35.5312C44.3816 35.4167 44.7203 35.3268 45.0642 35.2622C45.7231 35.1437 46.4026 35.2578 46.9866 35.585C47.5706 35.9122 48.0228 36.4321 48.2658 37.0558C48.9833 39.0646 46.9924 41.5398 42.9388 43.6293C42.9135 43.6421 42.891 43.6598 42.8725 43.6813C42.854 43.7029 42.84 43.7279 42.8312 43.7549C42.7951 43.8101 42.753 43.8613 42.7057 43.9073C42.6735 43.9447 42.6558 43.9925 42.6558 44.0418C42.6558 44.0912 42.6735 44.1389 42.7057 44.1764C42.7229 44.2141 42.7508 44.246 42.7858 44.2683C42.8208 44.2905 42.8615 44.3022 42.903 44.3019H42.9568C49.0102 42.7056 50.4809 40.1408 50.8217 38.7507C50.979 38.1361 50.9616 37.4898 50.7714 36.8846C50.5813 36.2794 50.226 35.7392 49.7455 35.325C49.0558 34.7557 48.2253 34.3828 47.3416 34.2455C46.4578 34.1082 45.5534 34.2116 44.7235 34.5447C44.359 34.6789 44.0455 34.9234 43.8267 35.2442C43.8004 35.2746 43.7831 35.3116 43.7768 35.3512C43.7704 35.3908 43.7753 35.4314 43.7908 35.4684Z" fill="#FDDD09"/>
<path d="M32.5001 34.9751C32.5424 35.0126 32.5962 35.0347 32.6526 35.0379C32.7006 35.0352 32.7471 35.0198 32.7871 34.9931C32.8284 34.9614 32.8579 34.9168 32.8709 34.8664C32.8839 34.816 32.8796 34.7627 32.8589 34.715C32.3752 33.7373 31.8018 32.8067 31.146 31.935C28.9129 28.7513 26.8055 25.7471 32.7961 21.012C36.751 17.8911 38.8405 14.8151 39.0109 11.8915C39.0809 11.1374 38.9978 10.3769 38.7666 9.65571C38.5355 8.9345 38.161 8.26742 37.6657 7.69449C37.6259 7.66789 37.5791 7.65369 37.5312 7.65369C37.4833 7.65369 37.4365 7.66789 37.3967 7.69449C37.3546 7.71971 37.3216 7.75755 37.3022 7.80263C37.2829 7.84771 37.2783 7.89774 37.2891 7.9456C38.6073 13.1739 34.9753 16.0347 31.433 18.8327C29.6297 20.0736 28.0294 21.5862 26.6889 23.3167C24.2137 27.0026 28.0431 30.9216 32.5001 34.9751Z" fill="#FDDD09"/>
<path d="M50.7319 52.0592C50.6807 52.0461 50.6266 52.0516 50.579 52.0745C50.5314 52.0975 50.4935 52.1366 50.4718 52.1848C50.4718 52.1848 49.7006 53.7004 43.2975 54.8752C35.9319 56.1453 28.4138 56.2632 21.012 55.2249C20.9634 55.2163 20.9134 55.2239 20.8696 55.2466C20.8259 55.2693 20.7908 55.3058 20.7699 55.3505C20.7488 55.3959 20.7435 55.447 20.7549 55.4958C20.7663 55.5446 20.7936 55.5881 20.8326 55.6195C20.8775 55.6195 22.0882 56.597 27.8994 56.9737C29.4598 57.0723 31.1907 57.1261 32.9753 57.1261C41.1541 57.1261 50.5795 55.9424 50.8664 52.2745C50.8684 52.2292 50.8566 52.1844 50.8326 52.146C50.8086 52.1075 50.7735 52.0773 50.7319 52.0592Z" fill="#FDDD09"/>
</g>
<defs>
<clipPath id="clip0_132_52">
<rect width="65" height="65" fill="white"/>
</clipPath>
</defs>
</svg>
