<svg width="307" height="278" viewBox="0 0 307 278" fill="none" xmlns="http://www.w3.org/2000/svg">
<path d="M183.376 52.8955H1V184.135H183.376V52.8955Z" fill="white" stroke="#191919" stroke-width="0.901961" stroke-linecap="round" stroke-linejoin="round"/>
<path d="M152.106 111.397H32.2666V184.135H152.106V111.397Z" fill="#191919"/>
<path d="M175.728 202.436H19.2871V239.074H175.728V202.436Z" fill="#FBDC0C"/>
<path d="M246.545 0H202.421V85.2127H246.545V0Z" fill="#FBDC0C"/>
<path d="M32.2666 97.2449H97.5054" stroke="#191919" stroke-width="0.901961" stroke-linecap="round" stroke-linejoin="round"/>
<path d="M32.2666 81.2666H152.106" stroke="#191919" stroke-width="0.901961" stroke-linecap="round" stroke-linejoin="round"/>
<path d="M15.2418 69.9921C17.0899 69.9921 18.5881 68.4939 18.5881 66.6458C18.5881 64.7977 17.0899 63.2996 15.2418 63.2996C13.3937 63.2996 11.8955 64.7977 11.8955 66.6458C11.8955 68.4939 13.3937 69.9921 15.2418 69.9921Z" fill="#191919"/>
<path d="M31.5538 69.9921C33.4019 69.9921 34.9001 68.4939 34.9001 66.6458C34.9001 64.7977 33.4019 63.2996 31.5538 63.2996C29.7057 63.2996 28.2075 64.7977 28.2075 66.6458C28.2075 68.4939 29.7057 69.9921 31.5538 69.9921Z" fill="#191919"/>
<path d="M47.8614 69.9921C49.7095 69.9921 51.2077 68.4939 51.2077 66.6458C51.2077 64.7977 49.7095 63.2996 47.8614 63.2996C46.0133 63.2996 44.5151 64.7977 44.5151 66.6458C44.5151 68.4939 46.0133 69.9921 47.8614 69.9921Z" fill="#191919"/>
<path d="M44.5152 224.787C46.3633 224.787 47.8615 223.288 47.8615 221.44C47.8615 219.592 46.3633 218.094 44.5152 218.094C42.6671 218.094 41.1689 219.592 41.1689 221.44C41.1689 223.288 42.6671 224.787 44.5152 224.787Z" stroke="#191919" stroke-width="0.901961" stroke-linecap="round" stroke-linejoin="round"/>
<path d="M64.8858 224.787C66.7339 224.787 68.2321 223.288 68.2321 221.44C68.2321 219.592 66.7339 218.094 64.8858 218.094C63.0377 218.094 61.5396 219.592 61.5396 221.44C61.5396 223.288 63.0377 224.787 64.8858 224.787Z" stroke="#191919" stroke-width="0.901961" stroke-linecap="round" stroke-linejoin="round"/>
<path d="M85.2564 224.787C87.1045 224.787 88.6027 223.288 88.6027 221.44C88.6027 219.592 87.1045 218.094 85.2564 218.094C83.4083 218.094 81.9102 219.592 81.9102 221.44C81.9102 223.288 83.4083 224.787 85.2564 224.787Z" stroke="#191919" stroke-width="0.901961" stroke-linecap="round" stroke-linejoin="round"/>
<path d="M239.488 15.6715H209.484V50.4421H239.488V15.6715Z" stroke="#191919" stroke-width="0.901961" stroke-linecap="round" stroke-linejoin="round"/>
<path d="M209.484 60.968H233.512" stroke="#191919" stroke-width="0.901961" stroke-linecap="round" stroke-linejoin="round"/>
<path d="M209.484 72.238H224.61" stroke="#191919" stroke-width="0.901961" stroke-linecap="round" stroke-linejoin="round"/>
<path d="M237.458 128.94L231.703 137.301L233.571 142.289L230.865 146.054C230.865 146.054 227.194 151.989 229.088 159.205L239.185 172.874V180.627L267.254 171.76L261.842 129.67C261.842 129.67 247.623 121.801 247.037 121.941C246.45 122.08 237.458 128.94 237.458 128.94Z" fill="white" stroke="#191919" stroke-width="0.901961" stroke-linecap="round" stroke-linejoin="round"/>
<path d="M239.185 172.897V165.871C239.185 165.871 244.597 165.623 248.787 153.559C252.976 141.495 255.809 139.881 259.128 141.739C261.559 143.092 261.55 149.658 251.461 154.817L250.446 160.256C250.228 161.423 250.416 162.63 250.979 163.675C251.542 164.72 252.446 165.541 253.54 166.001L267.263 171.765C267.263 171.765 286.182 149.933 283.228 136.638C280.342 123.659 273.654 114.206 246.401 112.687C244.081 112.545 241.754 112.79 239.515 113.413C236.633 114.229 233.368 115.848 232.461 119.032C230.206 126.992 237.467 128.922 237.467 128.922C237.467 128.922 251.75 124.737 252.981 131.136C254.212 137.536 249.779 146.154 242.64 151.078L235.492 156.021L229.088 159.205C229.088 159.205 224.939 172.897 239.185 172.897Z" fill="#191919" stroke="#191919" stroke-width="0.901961" stroke-miterlimit="10"/>
<path d="M228.529 141.842L250.334 142.78" stroke="#191919" stroke-width="0.901961" stroke-linecap="round" stroke-linejoin="round"/>
<path d="M228.547 137.558L227.392 146.587" stroke="#191919" stroke-width="0.901961" stroke-linecap="round" stroke-linejoin="round"/>
<path d="M205.046 230.28L183.823 207.694L184.801 194.684C184.936 192.928 184.705 191.164 184.124 189.502C183.543 187.84 182.623 186.317 181.424 185.028L175.462 178.597C174.323 177.375 172.766 176.628 171.101 176.505L162.081 175.828C162.033 175.824 161.984 175.831 161.938 175.847C161.892 175.863 161.85 175.888 161.815 175.921C161.779 175.954 161.751 175.994 161.731 176.039C161.712 176.083 161.702 176.131 161.702 176.18C161.701 176.748 161.888 177.3 162.233 177.751C162.578 178.201 163.062 178.526 163.61 178.674L167.294 179.337C168.125 179.482 168.903 179.844 169.549 180.388L173.216 183.477L170.568 184.234C170.227 184.332 169.91 184.499 169.636 184.726C169.363 184.953 169.14 185.234 168.981 185.551L168.598 186.323H168.074C167.662 186.321 167.259 186.452 166.926 186.695C166.593 186.939 166.346 187.282 166.221 187.675L165.932 188.618L164.354 188.988C163.939 189.085 163.565 189.312 163.289 189.637C163.012 189.962 162.846 190.366 162.816 190.792L162.613 194.012C162.574 194.65 162.745 195.284 163.1 195.816L167.885 203.009L167.971 204.402C168.029 205.332 168.399 206.216 169.022 206.91L175.705 214.369L197.88 249.054" fill="white"/>
<path d="M205.046 230.28L183.823 207.694L184.801 194.684C184.936 192.928 184.705 191.164 184.124 189.502C183.543 187.84 182.623 186.317 181.424 185.028L175.462 178.597C174.323 177.375 172.766 176.628 171.101 176.505L162.081 175.828C162.033 175.824 161.984 175.831 161.938 175.847C161.892 175.863 161.85 175.888 161.815 175.921C161.779 175.954 161.751 175.994 161.731 176.039C161.712 176.083 161.702 176.131 161.702 176.18C161.701 176.748 161.888 177.3 162.233 177.751C162.578 178.201 163.062 178.526 163.61 178.674L167.294 179.337C168.125 179.482 168.903 179.844 169.549 180.388L173.216 183.477L170.568 184.234C170.227 184.332 169.91 184.499 169.636 184.726C169.363 184.953 169.14 185.234 168.981 185.551L168.598 186.323H168.074C167.662 186.321 167.259 186.452 166.926 186.695C166.593 186.939 166.346 187.282 166.221 187.675L165.932 188.618L164.354 188.988C163.939 189.085 163.565 189.312 163.289 189.637C163.012 189.962 162.846 190.366 162.816 190.792L162.613 194.012C162.574 194.65 162.745 195.284 163.1 195.816L167.885 203.009L167.971 204.402C168.029 205.332 168.399 206.216 169.022 206.91L175.705 214.369L197.88 249.054" stroke="#191919" stroke-width="0.901961" stroke-linecap="round" stroke-linejoin="round"/>
<path d="M230.175 188.771C230.175 188.771 221.687 194.318 221.687 197.908C221.687 201.498 223.974 232.503 219.883 234.46C215.793 236.417 214.923 236.417 205.677 228.597L195.409 255.688C195.409 255.688 203.892 269.312 221.34 266.16L222.368 276.735H299.351C299.351 276.735 298.07 198.688 286.52 190.733C286.52 190.733 289.343 188.433 289.226 184.713C289.109 180.992 284.31 170.764 279.796 169.438C275.282 168.112 252.034 171.431 235.965 181.258C219.897 191.085 230.175 188.771 230.175 188.771Z" fill="#FBDC0C"/>
<path d="M195.417 255.674C196.358 257.186 197.512 258.553 198.845 259.733C212.307 272.284 234.22 267.053 240.939 249.92C243.447 243.534 244.701 235.267 243.194 224.665" stroke="#191919" stroke-width="0.901961" stroke-linecap="round" stroke-linejoin="round"/>
<path d="M219.897 234.46C217.191 235.759 215.883 236.196 212.618 234.059" stroke="#191919" stroke-width="0.901961" stroke-linecap="round" stroke-linejoin="round"/>
<path d="M240.376 187.436C245.337 186.985 256.029 190.724 256.029 190.724C282.498 197.62 286.529 190.724 286.529 190.724C286.529 190.724 289.352 188.424 289.235 184.703C289.118 180.983 284.319 170.755 279.805 169.429C275.291 168.103 252.043 171.422 235.974 181.249C219.906 191.076 230.197 188.762 230.197 188.762L234.838 187.409" stroke="#191919" stroke-width="0.901961" stroke-linecap="round" stroke-linejoin="round"/>
<path d="M212.618 234.059L203.801 258.146" stroke="#191919" stroke-width="0.901961" stroke-linecap="round" stroke-linejoin="round"/>
<path d="M215.545 235.448V242.686" stroke="#191919" stroke-width="0.901961" stroke-linecap="round" stroke-linejoin="round"/>
<path d="M219.974 234.487L221.904 241.275" stroke="#191919" stroke-width="0.901961" stroke-linecap="round" stroke-linejoin="round"/>
<path d="M274.096 174.908C274.096 174.908 264.174 176.306 251.682 176.712" stroke="#191919" stroke-width="0.901961" stroke-linecap="round" stroke-linejoin="round"/>
<path d="M167.867 203.045L169.166 195.473" stroke="#191919" stroke-width="0.901961" stroke-linecap="round" stroke-linejoin="round"/>
<path d="M166.677 195.924L168.643 198.526" stroke="#191919" stroke-width="0.901961" stroke-linecap="round" stroke-linejoin="round"/>
<path d="M173.198 183.481L175.728 185.398" stroke="#191919" stroke-width="0.901961" stroke-linecap="round" stroke-linejoin="round"/>
<path d="M7.94531 276.92H306.368" stroke="#191919" stroke-width="0.901961" stroke-linecap="round" stroke-linejoin="round"/>
</svg>
