<svg width="303" height="282" viewBox="0 0 303 282" fill="none" xmlns="http://www.w3.org/2000/svg">
<path d="M20.6854 280.744L29.254 221.968L9.63184 215.56L21.9075 192.875C24.1305 188.768 27.4182 185.335 31.4254 182.936C35.4327 180.537 40.0117 179.261 44.682 179.242C52.4885 179.211 64.0381 180.343 73.5854 181.497C84.3242 182.777 94.1971 188.024 101.267 196.208L111.305 207.821L94.9979 225.77L89.284 219.24L88.0573 280.749L20.6854 280.744Z" fill="#191919"/>
<path d="M45.169 170.137L57.4898 167.431C58.6855 167.198 59.8193 166.718 60.8188 166.022C61.8183 165.325 62.6614 164.428 63.2943 163.387C63.9272 162.346 64.3359 161.185 64.4943 159.977C64.6526 158.769 64.5571 157.542 64.2139 156.373C64.2139 156.373 55.2214 151.962 56.9983 145.437C58.7751 138.911 64.5792 144.025 64.5792 144.025L67.4069 126.035C67.4069 126.035 70.2165 114.396 60.9624 114.22C51.7083 114.044 28.609 118.63 26.6879 135.384C24.7667 152.138 34.5665 165.916 45.169 170.137Z" fill="#FBDC0C"/>
<path d="M47.0991 179.274L45.1689 170.137L57.4897 167.431C58.6853 167.198 59.8192 166.718 60.8187 166.022C61.8182 165.325 62.6613 164.428 63.2942 163.387C63.9271 162.346 64.3358 161.185 64.4942 159.977C64.6525 158.769 64.557 157.542 64.2138 156.373C64.2138 156.373 55.2213 151.962 56.9982 145.437C58.775 138.911 64.5791 144.025 64.5791 144.025L67.4068 126.035C67.4068 126.035 80.4582 148.255 75.6958 163.954C75.6958 163.954 74.1083 170.831 66.1711 171.891L69.6572 181.01L47.0991 179.274Z" fill="white" stroke="#191919" stroke-width="0.901961" stroke-linecap="round" stroke-linejoin="round"/>
<path d="M232.831 132.764L227.058 141.125L228.939 146.118L226.233 149.883C226.233 149.883 222.625 155.841 224.492 163.052L234.59 176.721V184.474L262.659 175.607L257.247 133.517C257.247 133.517 243.037 125.625 242.464 125.765C241.891 125.905 232.831 132.764 232.831 132.764Z" fill="white" stroke="#191919" stroke-width="0.901961" stroke-linecap="round" stroke-linejoin="round"/>
<path d="M234.554 176.721V169.686C234.554 169.686 239.965 169.438 244.155 157.374C248.344 145.31 251.177 143.696 254.496 145.554C256.927 146.907 256.918 153.473 246.829 158.632L245.814 164.071C245.596 165.238 245.784 166.445 246.347 167.49C246.91 168.536 247.814 169.357 248.908 169.817L262.632 175.58C262.632 175.58 281.55 153.748 278.596 140.453C275.71 127.474 269.022 118.022 241.769 116.502C239.449 116.36 237.122 116.606 234.883 117.228C232.001 118.044 228.736 119.663 227.829 122.847C225.574 130.807 232.835 132.737 232.835 132.737C232.835 132.737 247.118 128.552 248.349 134.951C249.58 141.351 245.147 149.969 238.008 154.894L230.869 159.818L224.465 163.02C224.465 163.02 220.312 176.721 234.554 176.721Z" fill="#191919" stroke="#191919" stroke-width="0.901961" stroke-miterlimit="10"/>
<path d="M223.897 145.671L245.702 146.609" stroke="#191919" stroke-width="0.901961" stroke-linecap="round" stroke-linejoin="round"/>
<path d="M223.915 141.387L222.761 150.415" stroke="#191919" stroke-width="0.901961" stroke-linecap="round" stroke-linejoin="round"/>
<path d="M200.414 234.108L179.196 211.523L180.192 198.508C180.327 196.753 180.097 194.988 179.515 193.326C178.934 191.665 178.014 190.141 176.815 188.853L170.835 182.426C169.696 181.204 168.139 180.457 166.474 180.334L157.454 179.657C157.406 179.653 157.357 179.66 157.311 179.676C157.265 179.692 157.223 179.717 157.188 179.75C157.152 179.783 157.124 179.823 157.104 179.868C157.085 179.912 157.075 179.96 157.075 180.009C157.074 180.576 157.261 181.129 157.606 181.579C157.951 182.03 158.435 182.355 158.983 182.503L162.667 183.166C163.499 183.311 164.277 183.673 164.922 184.216L168.589 187.306L165.941 188.063C165.6 188.161 165.283 188.328 165.009 188.555C164.736 188.782 164.513 189.063 164.354 189.38L163.971 190.151H163.448C163.035 190.15 162.633 190.281 162.299 190.524C161.966 190.768 161.719 191.111 161.594 191.504L161.292 192.46L159.713 192.83C159.298 192.927 158.925 193.155 158.648 193.479C158.371 193.804 158.206 194.209 158.176 194.634L157.973 197.854C157.934 198.492 158.105 199.126 158.46 199.658L163.245 206.851L163.33 208.245C163.389 209.175 163.759 210.058 164.381 210.752L171.065 218.211L193.28 252.865" fill="white"/>
<path d="M200.414 234.108L179.196 211.523L180.192 198.508C180.327 196.753 180.097 194.988 179.515 193.326C178.934 191.665 178.014 190.141 176.815 188.853L170.835 182.426C169.696 181.204 168.139 180.457 166.474 180.334L157.454 179.657C157.406 179.653 157.357 179.66 157.311 179.676C157.265 179.692 157.223 179.717 157.188 179.75C157.152 179.783 157.124 179.823 157.104 179.868C157.085 179.912 157.075 179.96 157.075 180.009C157.074 180.576 157.261 181.129 157.606 181.579C157.951 182.03 158.435 182.355 158.983 182.503L162.667 183.166C163.499 183.311 164.277 183.673 164.922 184.216L168.589 187.306L165.941 188.063C165.6 188.161 165.283 188.328 165.009 188.555C164.736 188.782 164.513 189.063 164.354 189.38L163.971 190.151H163.448C163.035 190.15 162.633 190.281 162.299 190.524C161.966 190.768 161.719 191.111 161.594 191.504L161.292 192.46L159.713 192.83C159.298 192.927 158.925 193.155 158.648 193.479C158.371 193.804 158.206 194.209 158.176 194.634L157.973 197.854C157.934 198.492 158.105 199.126 158.46 199.658L163.245 206.851L163.33 208.245C163.389 209.175 163.759 210.058 164.381 210.752L171.065 218.211L193.28 252.865" stroke="#191919" stroke-width="0.901961" stroke-linecap="round" stroke-linejoin="round"/>
<path d="M225.548 192.596C225.548 192.596 217.06 198.143 217.06 201.733C217.06 205.322 219.347 236.327 215.256 238.285C211.166 240.242 210.296 240.242 201.05 232.422L190.786 259.503C190.786 259.503 199.269 273.127 216.718 269.975L217.746 280.55H294.728C294.728 280.55 293.429 202.508 281.898 194.553C281.898 194.553 284.721 192.253 284.604 188.532C284.486 184.812 279.688 174.584 275.174 173.258C270.659 171.932 247.411 175.251 231.343 185.078C215.274 194.905 225.548 192.596 225.548 192.596Z" fill="#FBDC0C"/>
<path d="M190.786 259.503C191.726 261.015 192.881 262.382 194.214 263.562C207.675 276.113 229.588 270.881 236.308 253.749C238.816 247.363 240.069 239.096 238.563 228.494" stroke="#191919" stroke-width="0.901961" stroke-linecap="round" stroke-linejoin="round"/>
<path d="M215.265 238.289C212.559 239.588 211.251 240.025 207.986 237.888" stroke="#191919" stroke-width="0.901961" stroke-linecap="round" stroke-linejoin="round"/>
<path d="M235.744 191.265C240.705 190.814 251.398 194.553 251.398 194.553C277.866 201.448 281.897 194.553 281.897 194.553C281.897 194.553 284.721 192.253 284.603 188.532C284.486 184.812 279.688 174.584 275.173 173.258C270.659 171.932 247.411 175.251 231.343 185.078C215.274 194.905 225.565 192.591 225.565 192.591L230.206 191.238" stroke="#191919" stroke-width="0.901961" stroke-linecap="round" stroke-linejoin="round"/>
<path d="M207.987 237.888L199.17 261.975" stroke="#191919" stroke-width="0.901961" stroke-linecap="round" stroke-linejoin="round"/>
<path d="M210.914 239.272V246.515" stroke="#191919" stroke-width="0.901961" stroke-linecap="round" stroke-linejoin="round"/>
<path d="M215.342 238.316L217.272 245.103" stroke="#191919" stroke-width="0.901961" stroke-linecap="round" stroke-linejoin="round"/>
<path d="M269.46 178.737C269.46 178.737 259.538 180.135 247.046 180.541" stroke="#191919" stroke-width="0.901961" stroke-linecap="round" stroke-linejoin="round"/>
<path d="M163.236 206.869L164.539 199.297" stroke="#191919" stroke-width="0.901961" stroke-linecap="round" stroke-linejoin="round"/>
<path d="M162.045 199.748L164.011 202.355" stroke="#191919" stroke-width="0.901961" stroke-linecap="round" stroke-linejoin="round"/>
<path d="M168.566 187.306L171.096 189.227" stroke="#191919" stroke-width="0.901961" stroke-linecap="round" stroke-linejoin="round"/>
<path d="M97.1895 223.353L116.582 237.017C117.348 237.558 118.231 237.911 119.158 238.049C120.086 238.187 121.033 238.106 121.924 237.813C122.815 237.519 123.624 237.021 124.288 236.358C124.952 235.695 125.451 234.886 125.746 233.996L143.253 181.028L146.667 180.126C147.241 179.976 147.772 179.694 148.218 179.302C148.664 178.911 149.013 178.421 149.237 177.871L154.229 165.695C154.433 165.199 154.463 164.649 154.315 164.134C154.167 163.619 153.849 163.17 153.413 162.858C153.052 162.6 152.627 162.445 152.185 162.41C151.742 162.375 151.298 162.461 150.901 162.66L150.27 162.975L150.017 162.281C149.863 161.856 149.581 161.488 149.211 161.229C148.841 160.969 148.4 160.829 147.947 160.829H146.761L146.152 159.611C145.996 159.297 145.733 159.05 145.411 158.912C145.089 158.774 144.728 158.755 144.394 158.858L143.041 159.268L146.901 144.557C147.054 143.978 147.072 143.372 146.955 142.785L146.685 141.432C146.661 141.313 146.601 141.204 146.513 141.12C146.425 141.037 146.313 140.983 146.192 140.967C146.072 140.95 145.949 140.972 145.842 141.029C145.734 141.086 145.648 141.174 145.593 141.283L136.804 158.682L132.321 181.001L115.837 214.274L109.655 209.62" fill="white"/>
<path d="M97.1895 223.353L116.582 237.017C117.348 237.558 118.231 237.911 119.158 238.049C120.086 238.187 121.033 238.106 121.924 237.813C122.815 237.519 123.624 237.021 124.288 236.358C124.952 235.695 125.451 234.886 125.746 233.996L143.253 181.028L146.667 180.126C147.241 179.976 147.772 179.694 148.218 179.302C148.664 178.911 149.013 178.421 149.237 177.871L154.229 165.695C154.433 165.199 154.463 164.649 154.315 164.134C154.167 163.619 153.849 163.17 153.413 162.858C153.052 162.6 152.627 162.445 152.185 162.41C151.742 162.375 151.298 162.461 150.901 162.66L150.27 162.975L150.017 162.281C149.863 161.856 149.581 161.488 149.211 161.229C148.841 160.969 148.4 160.829 147.947 160.829H146.761L146.152 159.611C145.996 159.297 145.733 159.05 145.411 158.912C145.089 158.774 144.728 158.755 144.394 158.858L143.041 159.268L146.901 144.557C147.054 143.978 147.072 143.372 146.955 142.785L146.685 141.432C146.661 141.313 146.601 141.204 146.513 141.12C146.425 141.037 146.313 140.983 146.192 140.967C146.072 140.95 145.949 140.972 145.842 141.029C145.734 141.086 145.648 141.174 145.593 141.283L136.804 158.682L132.321 181.001L115.837 214.274L109.655 209.62" stroke="#191919" stroke-width="0.901961" stroke-linecap="round" stroke-linejoin="round"/>
<path d="M1 261.975L14.6557 217.206" stroke="#191919" stroke-width="0.901961" stroke-linecap="round" stroke-linejoin="round"/>
<path d="M60.9444 114.242C51.6903 114.066 28.5911 118.653 26.6699 135.407" stroke="#191919" stroke-width="0.901961" stroke-linecap="round" stroke-linejoin="round"/>
<path d="M264.797 48.2369C264.797 48.2369 252.3 45.7114 252.3 35.0908C253.905 31.7838 254.738 28.1552 254.735 24.4792C254.716 17.9928 252.131 11.7774 247.544 7.19082C242.958 2.6042 236.743 0.0190359 230.256 0H120.929C114.445 0.0190239 108.231 2.60295 103.644 7.18762C99.0578 11.7723 96.4716 17.9853 96.4502 24.4702C96.4669 30.9582 99.051 37.1758 103.638 41.7644C108.225 46.353 114.441 48.9394 120.929 48.9584H230.247C235.083 48.9603 239.81 47.5187 243.822 44.8184C243.822 44.8184 249.134 48.2369 264.797 48.2369Z" fill="#FBDC0C"/>
<path d="M115.644 18.86H235.397" stroke="#191919" stroke-width="0.901961" stroke-linecap="round" stroke-linejoin="round"/>
<path d="M115.644 30.7569H206.895" stroke="#191919" stroke-width="0.901961" stroke-linecap="round" stroke-linejoin="round"/>
<path d="M212.704 64.4406H96.3959C92.033 64.4537 87.8526 66.1926 84.7676 69.2776C81.6826 72.3626 79.9437 76.543 79.9306 80.9059C79.9298 82.044 80.0477 83.1791 80.2823 84.2927L80.2237 84.2251C80.2237 94.8457 67.7271 97.3712 67.7271 97.3712C78.97 97.3712 84.8643 95.6123 87.3131 94.6202C90.0019 96.4156 93.1628 97.373 96.3959 97.3712H212.704C217.067 97.3581 221.247 95.6191 224.332 92.5341C227.417 89.4491 229.156 85.2687 229.169 80.9059C229.156 76.543 227.417 72.3626 224.332 69.2776C221.247 66.1926 217.067 64.4537 212.704 64.4406Z" fill="white" stroke="#191919" stroke-width="0.901961" stroke-linecap="round" stroke-linejoin="round"/>
<path d="M210.251 79.9814H98.6284" stroke="#191919" stroke-width="0.901961" stroke-linecap="round" stroke-linejoin="round"/>
<path d="M3.31348 280.744H301.741" stroke="#191919" stroke-width="0.901961" stroke-linecap="round" stroke-linejoin="round"/>
</svg>
