<svg width="332" height="293" viewBox="0 0 332 293" fill="none" xmlns="http://www.w3.org/2000/svg">
<path d="M218.85 36.4995H210.195V37.8045H213.78V46.9995H215.25V37.8045H218.85V36.4995Z" fill="black"/>
<path d="M226.798 43.0695C226.798 40.6245 225.163 38.9745 222.868 38.9745C220.573 38.9745 218.878 40.6695 218.878 43.0245C218.878 45.3945 220.588 47.0895 223.153 47.0895C224.473 47.0895 225.568 46.6395 226.288 45.7995L225.493 44.8695C224.908 45.5145 224.128 45.8295 223.198 45.8295C221.623 45.8295 220.498 44.8995 220.318 43.5045H226.768C226.783 43.3695 226.798 43.1895 226.798 43.0695ZM222.868 40.1895C224.263 40.1895 225.268 41.1345 225.418 42.4695H220.318C220.468 41.1195 221.488 40.1895 222.868 40.1895Z" fill="black"/>
<path d="M232.437 47.0895C234.822 47.0895 236.562 45.3945 236.562 43.0245C236.562 40.6545 234.822 38.9745 232.437 38.9745C230.052 38.9745 228.297 40.6545 228.297 43.0245C228.297 45.3945 230.052 47.0895 232.437 47.0895ZM232.437 45.8295C230.907 45.8295 229.752 44.7195 229.752 43.0245C229.752 41.3295 230.907 40.2345 232.437 40.2345C233.967 40.2345 235.107 41.3295 235.107 43.0245C235.107 44.7195 233.967 45.8295 232.437 45.8295Z" fill="black"/>
<path d="M242.856 38.9745C241.686 38.9745 240.666 39.4245 240.021 40.3095V39.0495H238.641V49.9095H240.081V45.7995C240.741 46.6545 241.731 47.0895 242.856 47.0895C245.181 47.0895 246.876 45.4695 246.876 43.0245C246.876 40.5945 245.181 38.9745 242.856 38.9745ZM242.736 45.8295C241.221 45.8295 240.066 44.7195 240.066 43.0245C240.066 41.3445 241.221 40.2345 242.736 40.2345C244.266 40.2345 245.421 41.3445 245.421 43.0245C245.421 44.7195 244.266 45.8295 242.736 45.8295Z" fill="black"/>
<path d="M249.659 37.5195C250.229 37.5195 250.634 37.0995 250.634 36.5595C250.634 36.0495 250.214 35.6445 249.659 35.6445C249.104 35.6445 248.684 36.0645 248.684 36.5895C248.684 37.1145 249.104 37.5195 249.659 37.5195ZM248.939 46.9995H250.379V39.0495H248.939V46.9995Z" fill="black"/>
<path d="M256.053 39.0495C253.923 39.0495 252.558 39.9945 252.558 41.8395C252.558 43.0995 253.233 43.9245 254.418 44.2845L252.483 46.9995H254.028L255.768 44.4795H258.243V46.9995H259.533V39.0495H256.053ZM254.028 41.8845C254.028 40.7745 254.778 40.3095 256.098 40.3095H258.243V43.4445H256.038C254.703 43.4445 254.028 42.9495 254.028 41.8845Z" fill="black"/>
<path d="M211.637 66.5V77H213.122V67.805H219.212V77H220.682V66.5H211.637Z" fill="black"/>
<path d="M227.931 68.975C226.761 68.975 225.741 69.425 225.096 70.31V69.05H223.716V79.91H225.156V75.8C225.816 76.655 226.806 77.09 227.931 77.09C230.256 77.09 231.951 75.47 231.951 73.025C231.951 70.595 230.256 68.975 227.931 68.975ZM227.811 75.83C226.296 75.83 225.141 74.72 225.141 73.025C225.141 71.345 226.296 70.235 227.811 70.235C229.341 70.235 230.496 71.345 230.496 73.025C230.496 74.72 229.341 75.83 227.811 75.83Z" fill="black"/>
<path d="M236.805 68.975C235.53 68.975 234.345 69.335 233.52 69.995L234.12 71.075C234.735 70.55 235.695 70.22 236.64 70.22C238.065 70.22 238.77 70.925 238.77 72.14V72.425H236.49C234.12 72.425 233.295 73.475 233.295 74.75C233.295 76.13 234.435 77.09 236.235 77.09C237.48 77.09 238.365 76.67 238.845 75.95V77H240.21V72.2C240.21 70.025 238.98 68.975 236.805 68.975ZM236.475 75.98C235.38 75.98 234.72 75.485 234.72 74.69C234.72 74.015 235.125 73.46 236.55 73.46H238.77V74.57C238.41 75.485 237.555 75.98 236.475 75.98Z" fill="black"/>
<path d="M248.563 77H250.258L247.033 72.875L250.048 69.05H248.503L245.923 72.41H244.243V69.05H242.803V77H244.243V73.64H245.893L248.563 77Z" fill="black"/>
<path d="M257.561 69.05H250.301V70.31H253.211V77H254.651V70.31H257.561V69.05Z" fill="black"/>
<path d="M259.033 77H260.353L265.213 71.21V77H266.653V69.05H265.348L260.473 74.84V69.05H259.033V77Z" fill="black"/>
<path d="M275.208 77H276.903L273.678 72.875L276.693 69.05H275.148L272.568 72.41H270.888V69.05H269.448V77H270.888V73.64H272.538L275.208 77Z" fill="black"/>
<path d="M281.102 68.975C279.827 68.975 278.642 69.335 277.817 69.995L278.417 71.075C279.032 70.55 279.992 70.22 280.937 70.22C282.362 70.22 283.067 70.925 283.067 72.14V72.425H280.787C278.417 72.425 277.592 73.475 277.592 74.75C277.592 76.13 278.732 77.09 280.532 77.09C281.777 77.09 282.662 76.67 283.142 75.95V77H284.507V72.2C284.507 70.025 283.277 68.975 281.102 68.975ZM280.772 75.98C279.677 75.98 279.017 75.485 279.017 74.69C279.017 74.015 279.422 73.46 280.847 73.46H283.067V74.57C282.707 75.485 281.852 75.98 280.772 75.98Z" fill="black"/>
<path d="M198.033 182.88C198.033 182.88 199.161 190.051 198.033 195.553C198.033 195.553 182.88 193.884 173.229 202.047C163.578 210.21 150.41 225.904 150.41 225.904L166.419 244.078L175.439 237.224C175.439 237.224 178.957 254.225 178.957 265.545C178.957 276.865 175.619 283.72 174.537 292.378H240.11C240.11 292.378 236.457 284.216 236.772 273.031C237.088 261.847 238.982 256.706 239.659 251.204L260.449 248.363C260.449 248.363 255.804 215.351 245.792 207.504C235.78 199.657 219.951 198.845 219.951 198.845C219.951 198.845 215.396 197.537 216.929 182.835L198.033 182.88Z" fill="#FBDC0C"/>
<path d="M210.39 127.951C210.39 127.951 199.747 122.765 191.449 129.349C183.151 135.933 176.747 145.269 176.161 159.294C175.574 173.32 174.808 192.712 198.033 195.598L219.906 198.935C219.906 198.935 238.351 191.449 238.486 168.359C238.622 145.269 227.978 131.153 222.882 128.673C217.786 126.192 210.39 127.951 210.39 127.951Z" fill="#191919"/>
<path d="M189.329 158.753C189.329 158.753 186.173 157.355 184.729 159.835C183.286 162.316 186.398 167.908 188.247 169.802C188.924 170.478 191.404 171.922 191.404 171.922L190.818 161.053L189.329 158.753Z" fill="white" stroke="#191919" stroke-width="0.901961" stroke-linecap="round" stroke-linejoin="round"/>
<path d="M223.559 158.392C223.559 158.392 227.031 155.235 228.023 159.159C229.016 163.082 226.761 166.826 224.821 168.224C224.145 168.584 223.423 168.855 222.702 169.08C222.702 169.08 220.537 166.871 220.537 166.6C220.537 166.329 223.559 158.392 223.559 158.392Z" fill="white" stroke="#191919" stroke-width="0.901961" stroke-linecap="round" stroke-linejoin="round"/>
<path d="M216.659 191.269C216.478 188.473 216.523 185.676 216.884 182.88H198.033C198.304 185.902 198.394 188.924 198.304 191.945C198.259 193.929 196.59 195.463 194.651 195.373C194.741 199.567 196.229 208.586 207.278 209.804C221.71 211.382 224.641 199.386 224.641 199.386C220.357 198.935 217.02 195.508 216.659 191.269Z" fill="white" stroke="#191919" stroke-width="0.901961" stroke-linecap="round" stroke-linejoin="round"/>
<path d="M208.857 138.098C206.422 141.841 201.1 148.606 191.494 154.424C190.006 155.325 189.149 156.994 189.329 158.753L189.916 164.841C190.637 172.418 194.155 179.453 199.702 184.594C200.378 185.225 201.055 185.812 201.731 186.398C205.429 189.6 210.931 189.329 214.314 185.857L214.404 185.767C219.455 180.535 222.477 173.725 222.973 166.465L223.649 156.994C223.784 155.01 223.063 153.116 221.71 151.673C218.824 148.651 213.773 143.059 211.563 138.233C211.202 137.467 210.3 137.151 209.533 137.512C209.263 137.647 209.037 137.827 208.857 138.098Z" fill="white" stroke="#191919" stroke-width="0.901961" stroke-linecap="round" stroke-linejoin="round"/>
<path d="M165.292 242.816L147.614 256.029C145.359 257.743 142.112 257.247 140.443 254.992C140.353 254.902 140.308 254.812 140.218 254.676L106.079 201.551L95.9315 194.651L91.1962 185.722L90.5197 176.747C90.4746 176.116 90.9256 175.62 91.557 175.575C91.7374 175.575 91.9178 175.575 92.0531 175.665C92.955 175.98 93.6766 176.657 94.0374 177.559C94.7138 179.588 95.9315 185 95.9315 185L98.3668 188.112L110.228 189.871L114.377 183.151C115.73 180.941 117.939 179.363 120.465 178.686C121.051 178.551 121.682 178.912 121.818 179.498C121.908 179.769 121.863 180.084 121.728 180.31L119.698 183.918L119.112 188.608C119.067 189.014 119.112 189.465 119.247 189.871C119.743 191.404 120.871 195.778 119.022 200.108L145.088 234.924L152.89 228.745" fill="white"/>
<path d="M165.292 242.816L147.614 256.029C145.359 257.743 142.112 257.247 140.443 254.992C140.353 254.902 140.308 254.812 140.218 254.676L106.079 201.551L95.9315 194.651L91.1962 185.722L90.5197 176.747C90.4746 176.116 90.9256 175.62 91.557 175.575C91.7374 175.575 91.9178 175.575 92.0531 175.665C92.955 175.98 93.6766 176.657 94.0374 177.559C94.7138 179.588 95.9315 185 95.9315 185L98.3668 188.112L110.228 189.871L114.377 183.151C115.73 180.941 117.939 179.363 120.465 178.686C121.051 178.551 121.682 178.912 121.818 179.498C121.908 179.769 121.863 180.084 121.728 180.31L119.698 183.918L119.112 188.608C119.067 189.014 119.112 189.465 119.247 189.871C119.743 191.404 120.871 195.778 119.022 200.108L145.088 234.924L152.89 228.745" stroke="#191919" stroke-width="0.901961" stroke-linecap="round" stroke-linejoin="round"/>
<path d="M91.2414 185.812L82.1767 181.573C80.8237 180.941 79.2002 180.896 77.8022 181.482C77.2159 181.708 76.9904 182.384 77.2159 182.925C77.3061 183.151 77.4414 183.331 77.6669 183.422L95.9316 194.696L91.2414 185.812Z" fill="white" stroke="#191919" stroke-width="0.901961" stroke-linecap="round" stroke-linejoin="round"/>
<path d="M103.914 193.208C103.914 193.208 112.031 194.29 113.61 200.243" stroke="#191919" stroke-width="0.901961" stroke-miterlimit="10" stroke-linecap="round"/>
<path d="M257.608 248.769L262.569 292.378L246.604 292.333L240.065 251.204" fill="white"/>
<path d="M257.608 248.769L262.569 292.378L246.604 292.333L240.065 251.204" stroke="#191919" stroke-width="0.901961" stroke-linecap="round" stroke-linejoin="round"/>
<path d="M205.384 215.441C222.071 217.29 229.241 203.4 229.963 200.469" stroke="#191919" stroke-width="0.901961" stroke-miterlimit="10" stroke-linecap="round"/>
<path d="M189.284 195.733C189.284 195.733 188.743 210.976 201.867 214.765" stroke="#191919" stroke-width="0.901961" stroke-miterlimit="10" stroke-linecap="round"/>
<path d="M154.153 221.484L171.11 240.471" stroke="#191919" stroke-width="0.901961" stroke-miterlimit="10" stroke-linecap="round"/>
<path d="M240.561 246.063L259.321 243.537" stroke="#191919" stroke-width="0.901961" stroke-miterlimit="10" stroke-linecap="round"/>
<path d="M85.0176 85.0627H1C1 55.0274 17.0098 27.2922 43.0314 12.2745L85.0176 85.0627Z" fill="#FBDC0C" stroke="#FBDC0C" stroke-width="0.45098" stroke-miterlimit="10"/>
<path d="M196.59 49.8412C201.198 49.8412 204.933 46.1058 204.933 41.498C204.933 36.8903 201.198 33.1549 196.59 33.1549C191.982 33.1549 188.247 36.8903 188.247 41.498C188.247 46.1058 191.982 49.8412 196.59 49.8412Z" fill="#FBDC0C" stroke="#FBDC0C" stroke-width="0.45098" stroke-miterlimit="10"/>
<path d="M196.59 80.5529C201.198 80.5529 204.933 76.8176 204.933 72.2098C204.933 67.602 201.198 63.8667 196.59 63.8667C191.982 63.8667 188.247 67.602 188.247 72.2098C188.247 76.8176 191.982 80.5529 196.59 80.5529Z" fill="white" stroke="#191919" stroke-width="0.901961" stroke-linecap="round" stroke-linejoin="round"/>
<path d="M32.4331 292.333H330.847" stroke="#191919" stroke-width="0.901961" stroke-linecap="round" stroke-linejoin="round"/>
<path d="M240.065 292.378C240.065 292.378 236.412 284.216 236.727 273.031C236.818 268.927 237.269 264.824 238.08 260.81C239.388 254.09 240.245 247.325 240.561 240.471" stroke="#191919" stroke-width="0.901961" stroke-linecap="round" stroke-linejoin="round"/>
<path d="M173.545 230.955L175.349 237.178C175.349 237.178 178.866 254.18 178.866 265.5" stroke="#191919" stroke-width="0.901961" stroke-linecap="round" stroke-linejoin="round"/>
<path d="M85.0176 85.0627L42.9863 12.2745C55.749 4.87843 70.2706 1 85.0176 1C131.108 1 169.035 38.9275 169.035 85.0177C169.035 131.108 131.108 169.08 85.0176 169.08C38.9275 169.08 1 131.153 1 85.0627H85.0176Z" fill="white" stroke="#191919" stroke-width="0.901961" stroke-linecap="round" stroke-linejoin="round"/>
<path d="M108.514 106.439C109.055 107.296 109.281 108.243 109.281 109.325C109.281 110.408 109.055 111.445 108.559 112.302C108.063 113.204 107.386 113.88 106.53 114.422C105.673 114.963 104.681 115.188 103.643 115.188C102.561 115.188 101.614 114.918 100.712 114.422C99.8551 113.925 99.1786 113.204 98.6825 112.347C98.1864 111.445 97.9609 110.498 97.9609 109.371C97.9609 108.288 98.2315 107.296 98.7727 106.439C99.3139 105.582 99.9903 104.906 100.892 104.41C100.306 104.004 99.81 103.463 99.4943 102.786C99.1786 102.11 98.9982 101.388 98.9982 100.622C98.9982 99.7647 99.2237 98.998 99.6296 98.2765C100.035 97.5549 100.622 97.0137 101.343 96.6078C102.065 96.202 102.877 96.0216 103.779 96.0216C104.635 96.0216 105.447 96.202 106.169 96.6078C106.89 97.0137 107.432 97.5549 107.837 98.2314C108.243 98.9078 108.424 99.6745 108.424 100.576C108.424 101.388 108.243 102.11 107.928 102.786C107.567 103.463 107.116 104.004 106.53 104.41C107.296 104.951 108.018 105.582 108.514 106.439ZM106.935 107.386C106.62 106.8 106.169 106.349 105.583 105.988C104.996 105.627 104.365 105.492 103.688 105.492C102.967 105.492 102.335 105.673 101.749 106.033C101.163 106.394 100.712 106.845 100.396 107.476C100.081 108.063 99.9002 108.739 99.9002 109.506C99.9002 110.273 100.081 110.949 100.396 111.58C100.712 112.212 101.163 112.708 101.749 113.069C102.335 113.429 102.967 113.61 103.688 113.61C104.41 113.61 105.041 113.429 105.628 113.069C106.214 112.708 106.665 112.212 106.981 111.58C107.296 110.949 107.477 110.227 107.477 109.461C107.432 108.649 107.251 107.973 106.935 107.386ZM101.569 102.831C102.11 103.418 102.832 103.688 103.643 103.688C104.455 103.688 105.177 103.373 105.718 102.786C106.259 102.2 106.53 101.478 106.53 100.576C106.53 99.7647 106.259 99.1333 105.718 98.5922C105.177 98.051 104.5 97.7804 103.688 97.7804C102.877 97.7804 102.155 98.051 101.614 98.5922C101.073 99.1333 100.802 99.8549 100.802 100.667C100.757 101.524 101.028 102.245 101.569 102.831ZM121.728 103.598C122.675 104.139 123.441 104.906 123.937 105.808C124.433 106.71 124.749 107.792 124.749 108.965C124.749 110.137 124.479 111.175 123.937 112.122C123.396 113.069 122.675 113.835 121.728 114.331C120.781 114.873 119.743 115.143 118.571 115.143C117.398 115.143 116.361 114.873 115.414 114.331C114.467 113.79 113.745 113.069 113.204 112.122C112.663 111.175 112.392 110.137 112.392 108.965C112.392 108.694 112.483 108.469 112.663 108.288C112.843 108.108 113.069 108.018 113.339 108.018C113.61 108.018 113.835 108.108 114.016 108.288C114.196 108.469 114.286 108.694 114.286 108.965C114.286 109.776 114.467 110.498 114.828 111.129C115.188 111.806 115.73 112.302 116.361 112.663C116.992 113.024 117.714 113.204 118.526 113.204C119.337 113.204 120.059 113.024 120.69 112.663C121.367 112.302 121.863 111.761 122.224 111.129C122.584 110.453 122.765 109.731 122.765 108.965C122.765 108.198 122.584 107.431 122.224 106.8C121.863 106.124 121.322 105.627 120.69 105.267C120.059 104.906 119.292 104.725 118.526 104.725H114.286C114.016 104.725 113.79 104.635 113.61 104.455C113.43 104.275 113.339 104.049 113.339 103.778V97.1039C113.339 96.8333 113.43 96.6078 113.61 96.4275C113.79 96.2471 114.016 96.1569 114.286 96.1569H122.855C123.126 96.1569 123.351 96.2471 123.532 96.4275C123.712 96.6078 123.802 96.8333 123.802 97.1039C123.802 97.3745 123.712 97.6 123.532 97.7804C123.351 97.9608 123.126 98.051 122.855 98.051H115.233V102.831H118.571C119.743 102.741 120.781 103.057 121.728 103.598ZM134.13 96.7431C134.851 97.1941 135.437 97.7353 135.888 98.502C136.339 99.2235 136.52 100.035 136.52 100.892C136.52 101.749 136.294 102.561 135.888 103.282C135.437 104.004 134.896 104.59 134.175 104.996C133.453 105.447 132.641 105.627 131.784 105.627C130.928 105.627 130.116 105.402 129.394 104.996C128.673 104.545 128.086 104.004 127.635 103.282C127.184 102.561 127.004 101.749 127.004 100.892C127.004 100.035 127.23 99.2235 127.635 98.502C128.086 97.7804 128.628 97.1941 129.394 96.7431C130.116 96.2922 130.928 96.1118 131.784 96.1118C132.596 96.1118 133.408 96.2922 134.13 96.7431ZM130.296 98.3216C129.845 98.5922 129.484 98.9529 129.214 99.4039C128.943 99.8549 128.808 100.351 128.808 100.847C128.808 101.343 128.943 101.839 129.214 102.29C129.484 102.741 129.845 103.102 130.296 103.327C130.747 103.598 131.243 103.733 131.739 103.733C132.281 103.733 132.732 103.598 133.183 103.327C133.633 103.057 133.994 102.696 134.22 102.29C134.49 101.839 134.626 101.388 134.626 100.847C134.626 100.306 134.49 99.8549 134.22 99.4039C133.949 98.9529 133.588 98.5922 133.137 98.3216C132.686 98.051 132.235 97.9157 131.694 97.9157C131.243 97.9608 130.747 98.0961 130.296 98.3216ZM143.42 96.1118C143.69 96.1118 143.916 96.202 144.096 96.3824C144.277 96.5627 144.367 96.7882 144.367 97.0588C144.367 97.2843 144.322 97.4647 144.186 97.6L130.702 114.782C130.477 115.008 130.251 115.098 129.981 115.098C129.71 115.098 129.484 115.008 129.304 114.827C129.124 114.647 129.033 114.422 129.033 114.151C129.033 113.925 129.124 113.7 129.259 113.52L142.608 96.4275C142.879 96.202 143.149 96.1118 143.42 96.1118ZM144.006 106.259C144.728 106.665 145.314 107.251 145.765 107.973C146.216 108.694 146.396 109.506 146.396 110.363C146.396 111.22 146.171 112.031 145.765 112.753C145.314 113.475 144.773 114.061 144.006 114.467C143.284 114.873 142.473 115.098 141.616 115.098C140.759 115.098 139.947 114.873 139.226 114.467C138.504 114.016 137.918 113.475 137.512 112.753C137.061 112.031 136.881 111.22 136.881 110.363C136.881 109.506 137.106 108.694 137.512 107.973C137.963 107.251 138.504 106.665 139.226 106.259C139.947 105.808 140.759 105.627 141.616 105.627C142.473 105.627 143.284 105.853 144.006 106.259ZM139.586 108.333C139 108.92 138.73 109.596 138.73 110.363C138.73 111.175 139 111.851 139.586 112.392C140.173 112.978 140.849 113.249 141.616 113.249C142.157 113.249 142.608 113.114 143.059 112.843C143.51 112.573 143.871 112.212 144.141 111.761C144.412 111.31 144.547 110.859 144.547 110.318C144.547 109.822 144.412 109.325 144.141 108.875C143.871 108.424 143.51 108.063 143.059 107.792C142.608 107.522 142.112 107.386 141.616 107.386C140.849 107.476 140.173 107.792 139.586 108.333Z" fill="black"/>
<path d="M26.2998 55.298C26.1194 55.298 25.9841 55.2529 25.8488 55.1176C25.7136 54.9824 25.6685 54.8471 25.6685 54.6667C25.6685 54.5314 25.7136 54.3961 25.7587 54.3059C25.8037 54.2157 25.939 54.1255 26.0743 54.0804L27.9685 53.4039C28.0587 53.3588 28.1489 53.3588 28.1939 53.3588C28.3743 53.3588 28.5096 53.4039 28.6449 53.5392C28.7802 53.6745 28.8253 53.8098 28.8253 53.9902V62.2431C28.8253 62.4235 28.7802 62.5588 28.6449 62.6941C28.5096 62.8294 28.3743 62.8745 28.1939 62.8745C28.0136 62.8745 27.8783 62.8294 27.7881 62.6941C27.6528 62.5588 27.6077 62.4235 27.6077 62.2431V54.802L26.7057 55.1627C26.5704 55.298 26.4351 55.298 26.2998 55.298ZM35.4998 57.102C35.9959 57.3725 36.3567 57.7333 36.6273 58.2294C36.8979 58.7255 37.0332 59.2216 37.0332 59.8078C37.0332 60.3941 36.8979 60.8902 36.6273 61.3863C36.3567 61.8823 35.9959 62.2431 35.4998 62.5137C35.0038 62.7843 34.5077 62.9196 33.9214 62.9196C33.3351 62.9196 32.839 62.7843 32.343 62.5137C31.8469 62.2431 31.4861 61.8823 31.2155 61.3863C30.9449 60.8902 30.8096 60.3941 30.8096 59.8078C30.8096 59.6274 30.8547 59.4922 30.99 59.3569C31.1253 59.2216 31.2606 59.1765 31.441 59.1765C31.6214 59.1765 31.7567 59.2216 31.892 59.3569C32.0273 59.4922 32.0724 59.6274 32.0724 59.8078C32.0724 60.1686 32.1626 60.4843 32.2979 60.7549C32.4783 61.0255 32.7037 61.251 32.9743 61.4314C33.2449 61.6118 33.5606 61.6569 33.9214 61.6569C34.2822 61.6569 34.5979 61.5667 34.8685 61.4314C35.139 61.251 35.3645 61.0255 35.5449 60.7549C35.7253 60.4843 35.7704 60.1686 35.7704 59.8078C35.7704 59.4471 35.6802 59.1314 35.5449 58.8608C35.3645 58.5902 35.139 58.3647 34.8685 58.1843C34.5979 58.0039 34.2822 57.9588 33.9214 57.9588H31.892C31.7116 57.9588 31.5763 57.9137 31.441 57.7784C31.3057 57.6431 31.2606 57.5078 31.2606 57.3274V54.0353C31.2606 53.8549 31.3057 53.7196 31.441 53.5843C31.5763 53.449 31.7116 53.4039 31.892 53.4039H35.9508C36.1312 53.4039 36.2665 53.449 36.4018 53.5843C36.5371 53.7196 36.5822 53.8549 36.5822 54.0353C36.5822 54.2157 36.5371 54.351 36.4018 54.4412C36.2665 54.5765 36.1312 54.6216 35.9508 54.6216H32.5234V56.6961H33.9214C34.5077 56.6961 35.0489 56.8314 35.4998 57.102ZM41.6783 53.7196C42.039 53.9451 42.3547 54.2608 42.5802 54.6216C42.8057 54.9823 42.8959 55.3882 42.8959 55.8392C42.8959 56.2902 42.8057 56.651 42.5802 57.0569C42.3547 57.4628 42.0841 57.7333 41.6783 57.9588C41.3175 58.1843 40.9116 58.2745 40.4606 58.2745C40.0096 58.2745 39.6038 58.1843 39.243 57.9588C38.8822 57.7333 38.5665 57.4628 38.341 57.0569C38.1155 56.651 38.0253 56.2902 38.0253 55.8392C38.0253 55.3882 38.1155 55.0274 38.341 54.6216C38.5665 54.2608 38.8371 53.9451 39.243 53.7196C39.6038 53.4941 40.0096 53.4039 40.4606 53.4039C40.9116 53.4039 41.3175 53.4941 41.6783 53.7196ZM46.143 53.4039C46.3234 53.4039 46.4587 53.449 46.5939 53.5843C46.7292 53.7196 46.7743 53.8549 46.7743 54.0353C46.7743 54.1706 46.7292 54.3059 46.639 54.3961L40.19 62.6941C40.0547 62.8294 39.9194 62.8745 39.739 62.8745C39.5587 62.8745 39.4234 62.8294 39.2881 62.6941C39.1528 62.5588 39.1077 62.4235 39.1077 62.2431C39.1077 62.0628 39.1528 61.9274 39.243 61.8373L45.6469 53.5843C45.8273 53.449 45.9626 53.4039 46.143 53.4039ZM39.6037 54.9824C39.3783 55.2078 39.243 55.4784 39.243 55.8392C39.243 56.2 39.3783 56.4255 39.6037 56.651C39.8292 56.8765 40.0998 57.0118 40.4606 57.0118C40.7763 57.0118 41.0469 56.8765 41.2724 56.651C41.4979 56.4255 41.6332 56.1549 41.6332 55.8392C41.6332 55.5235 41.4979 55.2529 41.2724 54.9824C41.0469 54.7118 40.7763 54.6216 40.4606 54.6216C40.1449 54.6216 39.8292 54.7569 39.6037 54.9824ZM46.5939 58.3647C46.9547 58.5902 47.2704 58.8608 47.4959 59.2667C47.7214 59.6275 47.8116 60.0333 47.8116 60.4843C47.8116 60.9353 47.7214 61.3412 47.4959 61.702C47.2704 62.0627 46.9998 62.3784 46.5939 62.6039C46.2332 62.8294 45.8273 62.9196 45.3763 62.9196C44.9253 62.9196 44.5194 62.8294 44.1587 62.6039C43.7979 62.3784 43.4822 62.1078 43.2567 61.702C43.0312 61.3412 42.941 60.9353 42.941 60.4843C42.941 60.0333 43.0312 59.6275 43.2567 59.2667C43.4822 58.9059 43.7528 58.5902 44.1587 58.3647C44.5194 58.1392 44.9253 58.049 45.3763 58.049C45.8273 58.049 46.2332 58.1392 46.5939 58.3647ZM44.5645 59.6275C44.339 59.8529 44.2038 60.1235 44.2038 60.4392C44.2038 60.7549 44.339 61.0255 44.5645 61.251C44.79 61.4765 45.0606 61.6118 45.3763 61.6118C45.692 61.6118 45.9626 61.4765 46.2332 61.251C46.4587 61.0255 46.5939 60.7549 46.5939 60.4392C46.5939 60.1235 46.4587 59.8529 46.2332 59.6275C46.0077 59.402 45.7371 59.2667 45.3763 59.2667C45.0155 59.2667 44.79 59.402 44.5645 59.6275Z" fill="black"/>
</svg>
