<svg width="300" height="262" viewBox="0 0 300 262" fill="none" xmlns="http://www.w3.org/2000/svg">
<path d="M74.7173 151.719C74.7173 151.719 73.5673 158.871 74.7173 164.373C74.7173 164.373 89.8702 162.705 99.5212 170.876C109.172 179.048 122.363 194.72 122.363 194.72L106.358 212.894L97.3384 206.057C97.3384 206.057 93.8388 223.064 93.8388 234.402C93.8388 245.739 97.1806 252.576 98.263 261.244H32.6859C32.6859 261.244 36.3524 253.072 36.0186 241.906C35.6849 230.74 33.8043 225.567 33.1369 220.065L12.3467 217.233C12.3467 217.233 17.0143 184.221 27.0171 176.383C37.0198 168.545 52.8582 167.715 52.8582 167.715C52.8582 167.715 57.4267 166.416 55.8933 151.728L74.7173 151.719Z" fill="#FBDC0C"/>
<path d="M84.2961 171.025C82.9431 167.607 75.9575 164.058 75.9575 164.058L52.8628 167.706C52.8628 167.706 34.4041 160.206 34.2598 137.143C34.1922 126.527 37.4978 117.273 41.0831 110.373C43.1387 106.453 46.1821 103.137 49.9123 100.754C53.6425 98.3706 57.9302 97.0025 62.3514 96.7849C62.3514 96.7849 72.99 91.5941 81.2926 98.1649C89.5951 104.736 96.008 114.098 96.5943 128.078C96.8108 133.319 94.3078 139.506 96.0667 144.923C96.4771 146.181 97.6812 148.016 99.0973 149.883C103.95 156.328 104.766 165.063 100.865 172.126C100.751 172.333 100.634 172.535 100.513 172.73C96.5853 179.242 86.8847 178.304 84.3412 171.134L84.2961 171.025Z" fill="#191919"/>
<path d="M83.4213 127.627C83.4213 127.627 86.5781 126.247 87.9987 128.723C89.4193 131.199 86.3301 136.814 84.463 138.681C83.7911 139.353 81.3062 140.783 81.3062 140.783L81.8924 129.9L83.4213 127.627Z" fill="white" stroke="#191919" stroke-width="0.901961" stroke-linecap="round" stroke-linejoin="round"/>
<path d="M49.1918 127.222C49.1918 127.222 45.7418 124.065 44.7316 127.993C43.7214 131.921 45.9898 135.659 47.9245 137.066C48.6077 137.425 49.3235 137.718 50.0622 137.941C50.0622 137.941 52.2089 135.723 52.2089 135.475C52.2089 135.226 49.1918 127.222 49.1918 127.222Z" fill="white" stroke="#191919" stroke-width="0.901961" stroke-linecap="round" stroke-linejoin="round"/>
<path d="M56.0964 160.098C56.2899 157.306 56.222 154.502 55.8935 151.723H74.7174C74.4518 154.74 74.357 157.77 74.4333 160.797C74.4484 161.266 74.5561 161.727 74.7502 162.154C74.9443 162.582 75.2209 162.966 75.5642 163.286C75.9075 163.606 76.3106 163.855 76.7504 164.018C77.1902 164.181 77.658 164.256 78.1268 164.238C78.0366 168.419 76.5393 177.443 65.4993 178.669C51.068 180.27 48.1411 168.252 48.1411 168.252C50.2053 168.022 52.126 167.084 53.5764 165.597C55.0268 164.11 55.9173 162.167 56.0964 160.098Z" fill="white" stroke="#191919" stroke-width="0.901961" stroke-linecap="round" stroke-linejoin="round"/>
<path d="M63.8575 106.927C66.2837 110.684 71.5963 117.44 81.2428 123.276C81.9764 123.719 82.5698 124.36 82.9544 125.127C83.339 125.893 83.4992 126.752 83.4165 127.605L82.8212 133.684C82.0838 141.242 78.5926 148.264 73.0124 153.415C72.3449 154.028 71.6594 154.632 71.001 155.218C69.2302 156.755 66.9379 157.554 64.5957 157.452C62.2536 157.349 60.0397 156.353 58.4096 154.668L58.3239 154.578C53.2941 149.351 50.2612 142.522 49.7553 135.285L49.0788 125.824C49.0114 124.858 49.1471 123.888 49.4772 122.978C49.8073 122.067 50.3246 121.236 50.9955 120.538C53.8953 117.539 58.9418 111.929 61.1651 107.112C61.2784 106.859 61.4583 106.642 61.6857 106.483C61.913 106.325 62.1792 106.231 62.4558 106.212C62.7324 106.193 63.0089 106.249 63.2558 106.375C63.5027 106.501 63.7107 106.692 63.8575 106.927Z" fill="white" stroke="#191919" stroke-width="0.901961" stroke-linecap="round" stroke-linejoin="round"/>
<path d="M15.1336 217.612L10.1548 261.239L26.142 261.19L32.6858 220.06" fill="white"/>
<path d="M15.1336 217.612L10.1548 261.239L26.142 261.19L32.6858 220.06" stroke="#191919" stroke-width="0.901961" stroke-linecap="round" stroke-linejoin="round"/>
<path d="M67.3661 184.266C50.6572 186.133 43.4912 172.234 42.8057 169.312" stroke="#191919" stroke-width="0.901961" stroke-miterlimit="10" stroke-linecap="round"/>
<path d="M83.4437 164.554C83.4437 164.554 83.9849 179.81 70.8613 183.59" stroke="#191919" stroke-width="0.901961" stroke-miterlimit="10" stroke-linecap="round"/>
<path d="M118.584 190.318L101.623 209.314" stroke="#191919" stroke-width="0.901961" stroke-miterlimit="10" stroke-linecap="round"/>
<path d="M32.1674 214.924L13.4111 212.362" stroke="#191919" stroke-width="0.901961" stroke-miterlimit="10" stroke-linecap="round"/>
<path d="M36.0189 241.901C35.9153 237.78 35.4536 233.676 34.6389 229.635C33.3096 222.932 32.4835 216.139 32.1675 209.314" stroke="#191919" stroke-width="0.901961" stroke-linecap="round" stroke-linejoin="round"/>
<path d="M99.2011 199.816L97.3972 206.053C97.3972 206.053 92.9731 223.096 93.8976 234.397C94.4523 241.162 98.3217 261.239 98.3217 261.239" stroke="#191919" stroke-width="0.901961" stroke-miterlimit="10" stroke-linecap="round"/>
<path d="M108.297 210.608L127.69 224.273C128.456 224.813 129.339 225.166 130.266 225.305C131.194 225.443 132.141 225.362 133.032 225.068C133.923 224.774 134.732 224.276 135.396 223.613C136.059 222.95 136.559 222.141 136.853 221.251L154.374 168.306L157.788 167.404C158.362 167.254 158.893 166.972 159.34 166.58C159.786 166.189 160.135 165.699 160.359 165.149L165.351 152.973C165.555 152.477 165.585 151.927 165.437 151.412C165.288 150.897 164.971 150.447 164.535 150.136C164.173 149.878 163.749 149.723 163.306 149.688C162.864 149.653 162.42 149.739 162.023 149.937L161.391 150.253L161.139 149.559C160.984 149.134 160.703 148.766 160.333 148.506C159.962 148.247 159.521 148.107 159.069 148.106H157.878L157.269 146.889C157.113 146.575 156.85 146.328 156.528 146.19C156.206 146.052 155.845 146.033 155.511 146.136L154.158 146.546L158.018 131.835C158.171 131.256 158.189 130.65 158.072 130.063L157.801 128.71C157.778 128.591 157.718 128.482 157.63 128.398C157.542 128.315 157.429 128.261 157.309 128.245C157.189 128.228 157.066 128.25 156.959 128.307C156.851 128.363 156.764 128.452 156.71 128.561L147.957 145.982L143.447 168.301L126.981 201.588L120.762 196.894" fill="white"/>
<path d="M108.297 210.608L127.69 224.273C128.456 224.813 129.339 225.166 130.266 225.305C131.194 225.443 132.141 225.362 133.032 225.068C133.923 224.774 134.732 224.276 135.396 223.613C136.059 222.95 136.559 222.141 136.853 221.251L154.374 168.306L157.788 167.404C158.362 167.254 158.893 166.972 159.34 166.58C159.786 166.189 160.135 165.699 160.359 165.149L165.351 152.973C165.555 152.477 165.585 151.927 165.437 151.412C165.288 150.897 164.971 150.447 164.535 150.136C164.173 149.878 163.749 149.723 163.306 149.688C162.864 149.653 162.42 149.739 162.023 149.937L161.391 150.253L161.139 149.559C160.984 149.134 160.703 148.766 160.333 148.506C159.962 148.247 159.521 148.107 159.069 148.106H157.878L157.269 146.889C157.113 146.575 156.85 146.328 156.528 146.19C156.206 146.052 155.845 146.033 155.511 146.136L154.158 146.546L158.018 131.835C158.171 131.256 158.189 130.65 158.072 130.063L157.801 128.71C157.778 128.591 157.718 128.482 157.63 128.398C157.542 128.315 157.429 128.261 157.309 128.245C157.189 128.228 157.066 128.25 156.959 128.307C156.851 128.363 156.764 128.452 156.71 128.561L147.957 145.982L143.447 168.301L126.981 201.588L120.762 196.894" stroke="#191919" stroke-width="0.901961" stroke-linecap="round" stroke-linejoin="round"/>
<path d="M164.12 239.426H131.229V261.19H164.12V239.426Z" fill="white" stroke="#191919" stroke-width="0.901961" stroke-linecap="round" stroke-linejoin="round"/>
<path d="M197.131 190.318H163.668V261.19H197.131V190.318Z" fill="#FBDC0C"/>
<path d="M229.444 157.455H196.554V261.194H229.444V157.455Z" fill="white" stroke="#191919" stroke-width="0.901961" stroke-linecap="round" stroke-linejoin="round"/>
<path d="M261.825 90.7238H228.935V261.573H261.825V90.7238Z" fill="#FBDC0C"/>
<path d="M215.658 14.463H227.929V36.34H225.007C220.869 36.34 216.9 34.6976 213.973 31.7735C211.045 28.8494 209.398 24.8828 209.394 20.7451C209.391 19.921 209.551 19.1045 209.865 18.3424C210.179 17.5803 210.64 16.8876 211.222 16.304C211.804 15.7204 212.495 15.2574 213.256 14.9415C214.018 14.6256 214.834 14.4629 215.658 14.463Z" stroke="#191919" stroke-width="0.901961" stroke-linecap="round" stroke-linejoin="round"/>
<path d="M264.589 36.3355H261.667V14.4585L273.947 14.4585C275.608 14.4585 277.201 15.1184 278.376 16.2932C279.551 17.4679 280.211 19.0612 280.211 20.7226C280.211 24.8634 278.566 28.8346 275.638 31.7626C272.71 34.6906 268.739 36.3355 264.598 36.3355H264.589Z" stroke="#191919" stroke-width="0.901961" stroke-linecap="round" stroke-linejoin="round"/>
<path d="M222.458 0C222.458 0 214.494 51.1412 245.616 51.1412C276.738 51.1412 266.605 0 266.605 0H222.458Z" fill="#FBDC0C"/>
<path d="M245.616 51.1412V73.0949" stroke="#191919" stroke-width="0.901961" stroke-linecap="round" stroke-linejoin="round"/>
<path d="M233.178 73.0949H256.259" stroke="#191919" stroke-width="0.901961" stroke-linecap="round" stroke-linejoin="round"/>
<path d="M225.047 6.25513H264.472" stroke="#191919" stroke-width="0.861373" stroke-linecap="round" stroke-linejoin="round"/>
<path d="M225.11 36.2994C228.403 44.6471 234.545 51.1412 245.616 51.1412C253.396 51.1412 258.6 47.9438 262.028 43.1498" stroke="#191919" stroke-width="0.861373" stroke-linecap="round" stroke-linejoin="round"/>
<path d="M299.423 261.19H1" stroke="#191919" stroke-width="0.901961" stroke-linecap="round" stroke-linejoin="round"/>
<path d="M234.748 99.2833H256.435" stroke="#191919" stroke-width="0.901961" stroke-linecap="round" stroke-linejoin="round"/>
<path d="M202.62 165.974H224.307" stroke="#191919" stroke-width="0.901961" stroke-linecap="round" stroke-linejoin="round"/>
<path d="M169.554 199.816H191.241" stroke="#191919" stroke-width="0.901961" stroke-linecap="round" stroke-linejoin="round"/>
<path d="M136.831 247.331H158.518" stroke="#191919" stroke-width="0.901961" stroke-linecap="round" stroke-linejoin="round"/>
</svg>
