<svg width="55" height="55" viewBox="0 0 55 55" fill="none" xmlns="http://www.w3.org/2000/svg">
<g clip-path="url(#clip0_132_302)">
<path d="M44.0815 54.6612H10.5674C4.67988 54.6612 0 49.9803 0 44.0913V10.5698C0 4.68093 4.67988 0 10.5674 0H44.0815C49.9691 0 54.649 4.68093 54.649 10.5698V44.0913C54.649 49.9803 49.9691 54.6612 44.0815 54.6612Z" fill="#FDDD09"/>
<path fill-rule="evenodd" clip-rule="evenodd" d="M27.0491 12.1143C22.7291 12.1143 18.4195 12.2782 14.1205 12.6065C11.216 12.8282 8.90388 15.1293 8.66797 18.0328C8.53005 19.7286 8.46143 21.7041 8.46143 23.9604C8.46143 27.5235 8.63286 31.7409 8.97496 36.6139C9.18116 39.5494 11.511 41.8883 14.4457 42.1056C18.6743 42.419 22.9031 42.5758 27.1317 42.5758C31.3444 42.5758 35.5371 42.4203 39.7101 42.1091C42.6435 41.8906 44.972 39.5521 45.1782 36.6176C45.5208 31.7431 45.6922 27.5246 45.6922 23.9604C45.6922 21.705 45.6236 19.7302 45.486 18.0349C45.2501 15.1305 42.9372 12.8293 40.0315 12.6082C35.7044 12.2789 31.3765 12.1143 27.0491 12.1143ZM10.3545 18.1698C10.5231 16.0959 12.1745 14.4523 14.2494 14.2939C18.5054 13.9689 22.7721 13.8066 27.0491 13.8066C31.334 13.8066 35.6185 13.9695 39.9034 14.2956C41.9787 14.4535 43.6305 16.0974 43.7991 18.1718C43.933 19.8181 43.9999 21.7479 43.9999 23.9604C43.9999 27.4813 43.8301 31.6613 43.4901 36.4991C43.3429 38.595 41.6796 40.2654 39.5844 40.4216C35.4532 40.7296 31.3026 40.8835 27.1317 40.8835C22.9448 40.8835 18.7578 40.7283 14.5708 40.418C12.4749 40.2627 10.8103 38.5921 10.6632 36.4953C10.3236 31.6592 10.1537 27.4806 10.1537 23.9604C10.1537 21.7471 10.2207 19.8164 10.3545 18.1698ZM12.6922 22.2681C12.2249 22.2681 11.846 21.8892 11.846 21.422C11.846 20.9546 12.2249 20.5758 12.6922 20.5758H41.4602C41.9275 20.5758 42.3063 20.9546 42.3063 21.422C42.3063 21.8892 41.9275 22.2681 41.4602 22.2681H12.6922ZM11.846 17.1912C11.846 18.1258 12.6038 18.8835 13.5383 18.8835C14.4729 18.8835 15.2307 18.1258 15.2307 17.1912C15.2307 16.2566 14.4729 15.4989 13.5383 15.4989C12.6038 15.4989 11.846 16.2566 11.846 17.1912ZM18.6153 18.8835C17.6807 18.8835 16.923 18.1258 16.923 17.1912C16.923 16.2566 17.6807 15.4989 18.6153 15.4989C19.5498 15.4989 20.3076 16.2566 20.3076 17.1912C20.3076 18.1258 19.5498 18.8835 18.6153 18.8835ZM21.9999 17.1912C21.9999 18.1258 22.7576 18.8835 23.6922 18.8835C24.6268 18.8835 25.3845 18.1258 25.3845 17.1912C25.3845 16.2566 24.6268 15.4989 23.6922 15.4989C22.7576 15.4989 21.9999 16.2566 21.9999 17.1912Z" fill="white"/>
</g>
<defs>
<clipPath id="clip0_132_302">
<rect width="55" height="55" fill="white"/>
</clipPath>
</defs>
</svg>
