<svg width="55" height="55" viewBox="0 0 55 55" fill="none" xmlns="http://www.w3.org/2000/svg">
<g clip-path="url(#clip0_132_321)">
<path d="M44.0815 54.6612H10.5674C4.67988 54.6612 0 49.9803 0 44.0913V10.5698C0 4.68093 4.67988 0 10.5674 0H44.0815C49.9691 0 54.649 4.68093 54.649 10.5698V44.0913C54.649 49.9803 49.9691 54.6612 44.0815 54.6612Z" fill="#FDDD09"/>
<path fill-rule="evenodd" clip-rule="evenodd" d="M21.9997 12.1143C18.2657 12.1143 15.2305 15.147 15.2305 18.8835C15.2305 22.6174 18.2635 25.6527 21.9997 25.6527C25.7339 25.6527 28.769 22.6199 28.769 18.8835C28.769 15.1496 25.736 12.1143 21.9997 12.1143ZM16.9228 18.8835C16.9228 21.6832 19.1981 23.9604 21.9997 23.9604C24.7993 23.9604 27.0767 21.6849 27.0767 18.8835C27.0767 16.0837 24.8014 13.8066 21.9997 13.8066C19.2002 13.8066 16.9228 16.082 16.9228 18.8835ZM35.5382 17.1912C32.7374 17.1912 30.4613 19.4656 30.4613 22.2681C30.4613 25.0687 32.7357 27.345 35.5382 27.345C38.339 27.345 40.6151 25.0706 40.6151 22.2681C40.6151 19.4675 38.3407 17.1912 35.5382 17.1912ZM32.1536 22.2681C32.1536 24.1344 33.6707 25.6527 35.5382 25.6527C37.4045 25.6527 38.9228 24.1356 38.9228 22.2681C38.9228 20.4018 37.4057 18.8835 35.5382 18.8835C33.672 18.8835 32.1536 20.4006 32.1536 22.2681ZM35.5386 30.7296C35.0714 30.7296 34.6925 30.3507 34.6925 29.8835C34.6925 29.4162 35.0714 29.0373 35.5386 29.0373C37.8705 29.0373 40.2024 29.2264 42.5334 29.6042C43.8296 29.8145 44.8873 30.7554 45.2467 32.0185L45.7731 33.8666C45.7916 33.9327 45.8086 33.9994 45.8234 34.0665C46.216 35.8529 45.0521 37.61 43.2841 38.0891C41.5852 38.5495 39.6649 38.9003 38.1308 39.0695C37.6664 39.121 37.2483 38.7859 37.1971 38.3212C37.1455 37.8569 37.4805 37.4387 37.9449 37.3875C39.3959 37.2274 41.2308 36.8924 42.8413 36.4558C43.7655 36.2053 44.3626 35.3038 44.1704 34.4299C44.163 34.3962 44.1547 34.3629 44.1452 34.3299L43.6192 32.4819C43.4395 31.8504 42.9106 31.3797 42.2624 31.2748C40.0206 30.9112 37.7797 30.7296 35.5386 30.7296ZM21.9997 40.8835C26.8374 40.8835 30.3477 40.431 32.499 39.5523C33.2493 39.2455 33.6769 38.4498 33.5183 37.6546L32.8605 34.3566C32.492 32.5095 30.9468 31.1284 29.0698 30.9689C27.1982 30.8096 24.8403 30.7296 21.9997 30.7296C19.1593 30.7296 16.8014 30.8096 14.9294 30.9689C13.0528 31.1284 11.5075 32.5095 11.139 34.3566L10.4813 37.6546C10.3226 38.4498 10.7502 39.2455 11.5005 39.5523C13.6514 40.431 17.1617 40.8835 21.9997 40.8835ZM10.8601 41.1188C13.2581 42.0986 16.9609 42.5758 21.9994 42.5758C27.0382 42.5758 30.7406 42.0986 33.1386 41.1188C34.6396 40.5054 35.4949 38.9137 35.1776 37.3235L34.5198 34.0257C34.0038 31.4396 31.8404 29.506 29.2131 29.2826C27.2879 29.1189 24.8844 29.0373 21.9994 29.0373C19.1147 29.0373 16.7113 29.1189 14.786 29.2826C12.1583 29.506 9.99492 31.4396 9.47936 34.0257L8.82114 37.3235C8.50383 38.9137 9.35912 40.5054 10.8601 41.1188Z" fill="white"/>
</g>
<defs>
<clipPath id="clip0_132_321">
<rect width="55" height="55" fill="white"/>
</clipPath>
</defs>
</svg>
