<svg width="55" height="55" viewBox="0 0 55 55" fill="none" xmlns="http://www.w3.org/2000/svg">
<g clip-path="url(#clip0_132_294)">
<path d="M44.0815 54.6612H10.5674C4.67988 54.6612 0 49.9803 0 44.0913V10.5698C0 4.68093 4.67988 0 10.5674 0H44.0815C49.9691 0 54.649 4.68093 54.649 10.5698V44.0913C54.649 49.9803 49.9691 54.6612 44.0815 54.6612Z" fill="#FDDD09"/>
<path fill-rule="evenodd" clip-rule="evenodd" d="M32.3041 16.2817C32.7317 16.4697 33.2308 16.2751 33.4188 15.8472C33.6994 15.2093 33.846 14.5175 33.846 13.8067C33.846 11.0028 31.5728 8.72974 28.7691 8.72974C25.9654 8.72974 23.6922 11.0028 23.6922 13.8067C23.6922 14.5278 23.843 15.2294 24.1313 15.8747C24.3218 16.3015 24.8221 16.493 25.2489 16.3026C25.6757 16.1119 25.8671 15.6116 25.6766 15.1848C25.4849 14.7555 25.3845 14.2888 25.3845 13.8067C25.3845 11.9373 26.9 10.422 28.7691 10.422C30.6383 10.422 32.1537 11.9373 32.1537 13.8067C32.1537 14.282 32.0563 14.7421 31.8695 15.1666C31.6815 15.5944 31.8761 16.0937 32.3041 16.2817ZM28.7745 42.5761C30.3329 42.5761 31.8913 42.5524 33.4494 42.5051C33.582 42.5009 33.7142 42.4949 33.846 42.4869V43.4222C33.846 44.8243 34.9827 45.9607 36.3845 45.9607H38.0768C39.4786 45.9607 40.6153 44.8243 40.6153 43.4222V40.006C43.7801 37.643 45.6922 33.9212 45.6922 29.8838C45.6922 23.0613 40.2723 17.4726 33.4527 17.264C31.8765 17.2156 30.3007 17.1914 28.7245 17.1914C27.1789 17.1914 25.6357 17.2148 24.0942 17.2611C23.7277 17.2723 23.3633 17.2989 23.0022 17.3409L21.5487 15.2411C21.0744 14.5561 20.2944 14.1475 19.4614 14.1475C18.0596 14.1475 16.923 15.2841 16.923 16.686V19.761C15.4281 20.8777 14.1953 22.3136 13.3189 23.9607H11.3936C10.2426 23.9607 9.23532 24.7356 8.94026 25.8483C8.62135 27.0503 8.46143 28.2551 8.46143 29.4607C8.46143 30.6665 8.62135 31.8713 8.94026 33.0732C9.23532 34.186 10.2426 34.9607 11.3936 34.9607H12.9087C13.7875 36.9595 15.174 38.6996 16.923 40.0058V43.4222C16.923 44.8243 18.0596 45.9607 19.4614 45.9607H21.1537C22.5556 45.9607 23.6922 44.8243 23.6922 43.4222V42.4865C23.8236 42.4945 23.9558 42.5007 24.088 42.5046C25.6502 42.5524 27.2124 42.5761 28.7745 42.5761ZM35.5383 41.5527C35.5383 41.0394 35.0847 40.6441 34.5761 40.7146C34.1873 40.7683 33.7944 40.8013 33.3977 40.8135C31.8571 40.8605 30.316 40.8838 28.7745 40.8838C27.2293 40.8838 25.6845 40.8602 24.1396 40.8131C23.7434 40.8012 23.3505 40.7681 22.9621 40.7142C22.4535 40.6439 21.9999 41.0391 21.9999 41.5525V43.4222C21.9999 43.8895 21.621 44.2684 21.1537 44.2684H19.4614C18.9942 44.2684 18.6153 43.8895 18.6153 43.4222V39.5724C18.6153 39.295 18.4794 39.0351 18.2513 38.8771C16.4478 37.6271 15.0534 35.8591 14.2647 33.8107C14.1391 33.4839 13.8251 33.2684 13.4751 33.2684H11.3936C11.0098 33.2684 10.6743 33.0102 10.576 32.6393C10.2942 31.5778 10.1537 30.5186 10.1537 29.4607C10.1537 28.4028 10.2942 27.3439 10.576 26.2823C10.6743 25.9112 11.0098 25.653 11.3936 25.653H13.5383C13.5879 25.653 13.6367 25.6571 13.6842 25.6654C14.0581 25.7299 14.4291 25.5376 14.5919 25.1948C15.4133 23.4668 16.6788 21.9798 18.2513 20.8896C18.4794 20.7317 18.6153 20.4717 18.6153 20.1944V16.686C18.6153 16.2187 18.9942 15.8398 19.4614 15.8398C19.739 15.8398 19.999 15.9759 20.1572 16.2044L21.9069 18.7318C22.092 18.9993 22.4147 19.1368 22.7361 19.0856C23.1997 19.0114 23.6699 18.967 24.1451 18.9525C25.6696 18.9067 27.1958 18.8838 28.7245 18.8838C30.2834 18.8838 31.8422 18.9078 33.401 18.9555C39.3064 19.1362 43.9999 23.9758 43.9999 29.8838C43.9999 33.513 42.2171 36.8462 39.287 38.8773C39.0589 39.0353 38.923 39.2952 38.923 39.5726V43.4222C38.923 43.8895 38.5441 44.2684 38.0768 44.2684H36.3845C35.9173 44.2684 35.5383 43.8895 35.5383 43.4222V41.5527ZM18.6153 27.3451C17.6807 27.3451 16.923 26.5874 16.923 25.6528C16.923 24.7182 17.6807 23.9605 18.6153 23.9605C19.5498 23.9605 20.3076 24.7182 20.3076 25.6528C20.3076 26.5874 19.5498 27.3451 18.6153 27.3451Z" fill="white"/>
</g>
<defs>
<clipPath id="clip0_132_294">
<rect width="55" height="55" fill="white"/>
</clipPath>
</defs>
</svg>
