<svg width="55" height="55" viewBox="0 0 55 55" fill="none" xmlns="http://www.w3.org/2000/svg">
<g clip-path="url(#clip0_132_310)">
<path d="M44.0815 54.6612H10.5674C4.67988 54.6612 0 49.9803 0 44.0913V10.5698C0 4.68093 4.67988 0 10.5674 0H44.0815C49.9691 0 54.649 4.68093 54.649 10.5698V44.0913C54.649 49.9803 49.9691 54.6612 44.0815 54.6612Z" fill="#FDDD09"/>
<path d="M21.1538 12.6923C21.1538 12.225 21.5326 11.8462 22 11.8462C22.4673 11.8462 22.8461 12.225 22.8461 12.6923V13.3336C22.8461 13.8009 23.2249 14.1797 23.6923 14.1797H30.4615C30.9288 14.1797 31.3077 13.8009 31.3077 13.3336V12.7813C31.3077 12.3139 31.6865 11.9351 32.1538 11.9351C32.6211 11.9351 33 12.3139 33 12.7813V13.3336C33 14.7356 31.8635 15.872 30.4615 15.872H23.6923C22.2903 15.872 21.1538 14.7356 21.1538 13.3336V12.6923Z" fill="white"/>
<path fill-rule="evenodd" clip-rule="evenodd" d="M14.2622 11.4929C19.0136 11.1642 23.567 11 27.923 11C32.0504 11 36.0523 11.1475 39.9278 11.4427C42.8149 11.6625 45.1195 13.9372 45.3778 16.821C45.5873 19.1663 45.6922 21.7335 45.6922 24.5231C45.6922 27.2998 45.5885 29.856 45.3806 32.1923C45.1237 35.0797 42.8149 37.357 39.9245 37.5741C35.4607 37.9092 31.4609 38.0769 27.923 38.0769C24.2371 38.0769 19.6874 37.8949 14.2717 37.5309C11.3602 37.3353 9.02496 35.0485 8.76841 32.1415C8.56347 29.8191 8.46143 27.2797 8.46143 24.5231C8.46143 21.7566 8.56432 19.2087 8.77086 16.8792C9.02784 13.9779 11.356 11.6937 14.2622 11.4929ZM14.3787 13.181C12.3034 13.3246 10.64 14.956 10.4566 17.0287C10.2545 19.3062 10.1537 21.8045 10.1537 24.5231C10.1537 27.232 10.2542 29.722 10.4541 31.9929C10.6376 34.0693 12.3055 35.7027 14.3849 35.8426C19.766 36.204 24.2793 36.3846 27.923 36.3846C31.4158 36.3846 35.3744 36.2188 39.7976 35.8866C41.8622 35.7314 43.5116 34.1048 43.6949 32.0425C43.8983 29.7583 43.9999 27.2517 43.9999 24.5231C43.9999 21.7819 43.897 19.2646 43.6921 16.9718C43.5079 14.912 41.8614 13.2872 39.7992 13.13C35.9672 12.8384 32.0083 12.6923 27.923 12.6923C23.6071 12.6923 19.0925 12.8553 14.3787 13.181ZM33.846 42.3077H20.3076C19.1792 42.3077 19.1792 44 20.3076 44H33.846C34.9744 44 34.9744 42.3077 33.846 42.3077Z" fill="white"/>
<path d="M27.0771 37.2307V42.3076" stroke="white" stroke-width="1.69231"/>
<path d="M10.1538 33H44.8461" stroke="white" stroke-width="1.69231"/>
</g>
<defs>
<clipPath id="clip0_132_310">
<rect width="55" height="55" fill="white"/>
</clipPath>
</defs>
</svg>
